<?xml version="1.0" encoding="utf-8" standalone="no"?>
<!DOCTYPE svg PUBLIC "-//W3C//DTD SVG 1.1//EN"
  "http://www.w3.org/Graphics/SVG/1.1/DTD/svg11.dtd">
<svg xmlns:xlink="http://www.w3.org/1999/xlink" width="374.759412pt" height="567.034375pt" viewBox="0 0 374.759412 567.034375" xmlns="http://www.w3.org/2000/svg" version="1.1">
 <metadata>
  <rdf:RDF xmlns:dc="http://purl.org/dc/elements/1.1/" xmlns:cc="http://creativecommons.org/ns#" xmlns:rdf="http://www.w3.org/1999/02/22-rdf-syntax-ns#">
   <cc:Work>
    <dc:type rdf:resource="http://purl.org/dc/dcmitype/StillImage"/>
    <dc:date>2026-03-04T13:21:27.965762</dc:date>
    <dc:format>image/svg+xml</dc:format>
    <dc:creator>
     <cc:Agent>
      <dc:title>Matplotlib v3.10.8, https://matplotlib.org/</dc:title>
     </cc:Agent>
    </dc:creator>
   </cc:Work>
  </rdf:RDF>
 </metadata>
 <defs>
  <style type="text/css">*{stroke-linejoin: round; stroke-linecap: butt}</style>
 </defs>
 <g id="figure_1">
  <g id="patch_1">
   <path d="M 0 567.034375 
L 374.759412 567.034375 
L 374.759412 0 
L 0 0 
z
" style="fill: #ffffff"/>
  </g>
  <g id="axes_1">
   <g id="patch_2">
    <path d="M 40.603125 529.478125 
L 294.183125 529.478125 
L 294.183125 22.318125 
L 40.603125 22.318125 
z
" style="fill: #ffffff"/>
   </g>
   <g id="patch_3">
    <path d="M 167.393125 247.539428 
C 187.893228 247.539428 207.55646 239.394651 222.052222 224.898889 
C 236.547984 210.403127 244.692762 190.739895 244.692762 170.239792 
C 244.692762 149.739688 236.547984 130.076456 222.052222 115.580694 
C 207.55646 101.084932 187.893228 92.940155 167.393125 92.940155 
C 146.893022 92.940155 127.22979 101.084932 112.734028 115.580694 
C 98.238266 130.076456 90.093488 149.739688 90.093488 170.239792 
C 90.093488 190.739895 98.238266 210.403127 112.734028 224.898889 
C 127.22979 239.394651 146.893022 247.539428 167.393125 247.539428 
L 167.393125 247.539428 
z
" clip-path="url(#p31efab1d0a)" style="fill: none; stroke: #808080; stroke-linejoin: miter"/>
   </g>
   <g id="patch_4">
    <path d="M 133.839952 181.996712 
C 135.465165 181.996712 137.024032 181.351008 138.173232 180.201809 
C 139.322431 179.05261 139.968135 177.493742 139.968135 175.868529 
C 139.968135 174.243316 139.322431 172.684448 138.173232 171.535249 
C 137.024032 170.38605 135.465165 169.740346 133.839952 169.740346 
C 132.214739 169.740346 130.655871 170.38605 129.506672 171.535249 
C 128.357472 172.684448 127.711768 174.243316 127.711768 175.868529 
C 127.711768 177.493742 128.357472 179.05261 129.506672 180.201809 
C 130.655871 181.351008 132.214739 181.996712 133.839952 181.996712 
z
" clip-path="url(#p31efab1d0a)" style="fill: #ff0000; stroke: #000000; stroke-linejoin: miter"/>
   </g>
   <g id="patch_5">
    <path d="M 152.071919 185.028811 
C 153.697132 185.028811 155.256 184.383107 156.405199 183.233908 
C 157.554399 182.084709 158.200103 180.525841 158.200103 178.900628 
C 158.200103 177.275415 157.554399 175.716547 156.405199 174.567348 
C 155.256 173.418149 153.697132 172.772445 152.071919 172.772445 
C 150.446706 172.772445 148.887839 173.418149 147.738639 174.567348 
C 146.58944 175.716547 145.943736 177.275415 145.943736 178.900628 
C 145.943736 180.525841 146.58944 182.084709 147.738639 183.233908 
C 148.887839 184.383107 150.446706 185.028811 152.071919 185.028811 
z
" clip-path="url(#p31efab1d0a)" style="fill: #ff0000; stroke: #000000; stroke-linejoin: miter"/>
   </g>
   <g id="patch_6">
    <path d="M 138.738546 206.302998 
C 140.363759 206.302998 141.922627 205.657294 143.071826 204.508095 
C 144.221025 203.358895 144.866729 201.800028 144.866729 200.174815 
C 144.866729 198.549601 144.221025 196.990734 143.071826 195.841535 
C 141.922627 194.692335 140.363759 194.046631 138.738546 194.046631 
C 137.113333 194.046631 135.554465 194.692335 134.405266 195.841535 
C 133.256067 196.990734 132.610362 198.549601 132.610362 200.174815 
C 132.610362 201.800028 133.256067 203.358895 134.405266 204.508095 
C 135.554465 205.657294 137.113333 206.302998 138.738546 206.302998 
z
" clip-path="url(#p31efab1d0a)" style="fill: #ff0000; stroke: #000000; stroke-linejoin: miter"/>
   </g>
   <g id="patch_7">
    <path d="M 141.203177 224.077865 
C 142.82839 224.077865 144.387257 223.432161 145.536457 222.282962 
C 146.685656 221.133763 147.33136 219.574895 147.33136 217.949682 
C 147.33136 216.324469 146.685656 214.765601 145.536457 213.616402 
C 144.387257 212.467203 142.82839 211.821498 141.203177 211.821498 
C 139.577963 211.821498 138.019096 212.467203 136.869897 213.616402 
C 135.720697 214.765601 135.074993 216.324469 135.074993 217.949682 
C 135.074993 219.574895 135.720697 221.133763 136.869897 222.282962 
C 138.019096 223.432161 139.577963 224.077865 141.203177 224.077865 
z
" clip-path="url(#p31efab1d0a)" style="fill: #ff0000; stroke: #000000; stroke-linejoin: miter"/>
   </g>
   <g id="patch_8">
    <path d="M 191.181178 154.204327 
C 192.806391 154.204327 194.365259 153.558623 195.514458 152.409424 
C 196.663657 151.260225 197.309361 149.701357 197.309361 148.076144 
C 197.309361 146.450931 196.663657 144.892063 195.514458 143.742864 
C 194.365259 142.593665 192.806391 141.947961 191.181178 141.947961 
C 189.555965 141.947961 187.997097 142.593665 186.847898 143.742864 
C 185.698699 144.892063 185.052995 146.450931 185.052995 148.076144 
C 185.052995 149.701357 185.698699 151.260225 186.847898 152.409424 
C 187.997097 153.558623 189.555965 154.204327 191.181178 154.204327 
z
" clip-path="url(#p31efab1d0a)" style="fill: #ff0000; stroke: #000000; stroke-linejoin: miter"/>
   </g>
   <g id="patch_9">
    <path d="M 171.500808 190.501325 
C 173.126021 190.501325 174.684889 189.855621 175.834088 188.706421 
C 176.983288 187.557222 177.628992 185.998355 177.628992 184.373141 
C 177.628992 182.747928 176.983288 181.189061 175.834088 180.039861 
C 174.684889 178.890662 173.126021 178.244958 171.500808 178.244958 
C 169.875595 178.244958 168.316728 178.890662 167.167528 180.039861 
C 166.018329 181.189061 165.372625 182.747928 165.372625 184.373141 
C 165.372625 185.998355 166.018329 187.557222 167.167528 188.706421 
C 168.316728 189.855621 169.875595 190.501325 171.500808 190.501325 
z
" clip-path="url(#p31efab1d0a)" style="fill: #ffd700; stroke: #000000; stroke-linejoin: miter"/>
   </g>
   <g id="patch_10">
    <path d="M 175.339008 204.252256 
C 176.964221 204.252256 178.523089 203.606552 179.672288 202.457353 
C 180.821487 201.308154 181.467191 199.749286 181.467191 198.124073 
C 181.467191 196.49886 180.821487 194.939992 179.672288 193.790793 
C 178.523089 192.641594 176.964221 191.99589 175.339008 191.99589 
C 173.713795 191.99589 172.154927 192.641594 171.005728 193.790793 
C 169.856529 194.939992 169.210825 196.49886 169.210825 198.124073 
C 169.210825 199.749286 169.856529 201.308154 171.005728 202.457353 
C 172.154927 203.606552 173.713795 204.252256 175.339008 204.252256 
z
" clip-path="url(#p31efab1d0a)" style="fill: #ffd700; stroke: #000000; stroke-linejoin: miter"/>
   </g>
   <g id="patch_11">
    <path d="M 160.699533 213.39563 
C 162.324746 213.39563 163.883613 212.749926 165.032812 211.600726 
C 166.182012 210.451527 166.827716 208.89266 166.827716 207.267446 
C 166.827716 205.642233 166.182012 204.083366 165.032812 202.934166 
C 163.883613 201.784967 162.324746 201.139263 160.699533 201.139263 
C 159.074319 201.139263 157.515452 201.784967 156.366253 202.934166 
C 155.217053 204.083366 154.571349 205.642233 154.571349 207.267446 
C 154.571349 208.89266 155.217053 210.451527 156.366253 211.600726 
C 157.515452 212.749926 159.074319 213.39563 160.699533 213.39563 
z
" clip-path="url(#p31efab1d0a)" style="fill: #ffd700; stroke: #000000; stroke-linejoin: miter"/>
   </g>
   <g id="patch_12">
    <path d="M 185.476601 228.513722 
C 187.101814 228.513722 188.660682 227.868018 189.809881 226.718819 
C 190.95908 225.56962 191.604784 224.010752 191.604784 222.385539 
C 191.604784 220.760326 190.95908 219.201458 189.809881 218.052259 
C 188.660682 216.90306 187.101814 216.257356 185.476601 216.257356 
C 183.851388 216.257356 182.29252 216.90306 181.143321 218.052259 
C 179.994122 219.201458 179.348418 220.760326 179.348418 222.385539 
C 179.348418 224.010752 179.994122 225.56962 181.143321 226.718819 
C 182.29252 227.868018 183.851388 228.513722 185.476601 228.513722 
z
" clip-path="url(#p31efab1d0a)" style="fill: #ffd700; stroke: #000000; stroke-linejoin: miter"/>
   </g>
   <g id="patch_13">
    <path d="M 158.323938 245.763168 
C 159.949152 245.763168 161.508019 245.117463 162.657218 243.968264 
C 163.806418 242.819065 164.452122 241.260197 164.452122 239.634984 
C 164.452122 238.009771 163.806418 236.450904 162.657218 235.301704 
C 161.508019 234.152505 159.949152 233.506801 158.323938 233.506801 
C 156.698725 233.506801 155.139858 234.152505 153.990658 235.301704 
C 152.841459 236.450904 152.195755 238.009771 152.195755 239.634984 
C 152.195755 241.260197 152.841459 242.819065 153.990658 243.968264 
C 155.139858 245.117463 156.698725 245.763168 158.323938 245.763168 
z
" clip-path="url(#p31efab1d0a)" style="fill: #ffd700; stroke: #000000; stroke-linejoin: miter"/>
   </g>
   <g id="patch_14">
    <path d="M 208.07784 239.385393 
C 209.703053 239.385393 211.26192 238.739689 212.41112 237.59049 
C 213.560319 236.441291 214.206023 234.882423 214.206023 233.25721 
C 214.206023 231.631997 213.560319 230.073129 212.41112 228.92393 
C 211.26192 227.774731 209.703053 227.129027 208.07784 227.129027 
C 206.452627 227.129027 204.893759 227.774731 203.74456 228.92393 
C 202.59536 230.073129 201.949656 231.631997 201.949656 233.25721 
C 201.949656 234.882423 202.59536 236.441291 203.74456 237.59049 
C 204.893759 238.739689 206.452627 239.385393 208.07784 239.385393 
z
" clip-path="url(#p31efab1d0a)" style="fill: #ffd700; stroke: #000000; stroke-linejoin: miter"/>
   </g>
   <g id="patch_15">
    <path d="M 167.393125 172.997474 
C 168.124471 172.997474 168.825961 172.706907 169.343101 172.189768 
C 169.860241 171.672628 170.150807 170.971138 170.150807 170.239792 
C 170.150807 169.508446 169.860241 168.806955 169.343101 168.289816 
C 168.825961 167.772676 168.124471 167.482109 167.393125 167.482109 
C 166.661779 167.482109 165.960289 167.772676 165.443149 168.289816 
C 164.926009 168.806955 164.635443 169.508446 164.635443 170.239792 
C 164.635443 170.971138 164.926009 171.672628 165.443149 172.189768 
C 165.960289 172.706907 166.661779 172.997474 167.393125 172.997474 
z
" clip-path="url(#p31efab1d0a)" style="opacity: 0.85; stroke: #000000; stroke-linejoin: miter"/>
   </g>
   <g id="matplotlib.axis_1">
    <g id="xtick_1">
     <g id="line2d_1">
      <path d="M 40.603125 529.478125 
L 40.603125 22.318125 
" clip-path="url(#p31efab1d0a)" style="fill: none; stroke: #b0b0b0; stroke-opacity: 0.25; stroke-width: 0.8; stroke-linecap: square"/>
     </g>
     <g id="line2d_2">
      <defs>
       <path id="mc465fac9d8" d="M 0 0 
L 0 3.5 
" style="stroke: #000000; stroke-width: 0.8"/>
      </defs>
      <g>
       <use xlink:href="#mc465fac9d8" x="40.603125" y="529.478125" style="stroke: #000000; stroke-width: 0.8"/>
      </g>
     </g>
     <g id="text_1">
      <!-- −3 -->
      <g transform="translate(33.232031 544.076562) scale(0.1 -0.1)">
       <defs>
        <path id="DejaVuSans-2212" d="M 678 2272 
L 4684 2272 
L 4684 1741 
L 678 1741 
L 678 2272 
z
" transform="scale(0.015625)"/>
        <path id="DejaVuSans-33" d="M 2597 2516 
Q 3050 2419 3304 2112 
Q 3559 1806 3559 1356 
Q 3559 666 3084 287 
Q 2609 -91 1734 -91 
Q 1441 -91 1130 -33 
Q 819 25 488 141 
L 488 750 
Q 750 597 1062 519 
Q 1375 441 1716 441 
Q 2309 441 2620 675 
Q 2931 909 2931 1356 
Q 2931 1769 2642 2001 
Q 2353 2234 1838 2234 
L 1294 2234 
L 1294 2753 
L 1863 2753 
Q 2328 2753 2575 2939 
Q 2822 3125 2822 3475 
Q 2822 3834 2567 4026 
Q 2313 4219 1838 4219 
Q 1578 4219 1281 4162 
Q 984 4106 628 3988 
L 628 4550 
Q 988 4650 1302 4700 
Q 1616 4750 1894 4750 
Q 2613 4750 3031 4423 
Q 3450 4097 3450 3541 
Q 3450 3153 3228 2886 
Q 3006 2619 2597 2516 
z
" transform="scale(0.015625)"/>
       </defs>
       <use xlink:href="#DejaVuSans-2212"/>
       <use xlink:href="#DejaVuSans-33" transform="translate(83.789062 0)"/>
      </g>
     </g>
    </g>
    <g id="xtick_2">
     <g id="line2d_3">
      <path d="M 82.866458 529.478125 
L 82.866458 22.318125 
" clip-path="url(#p31efab1d0a)" style="fill: none; stroke: #b0b0b0; stroke-opacity: 0.25; stroke-width: 0.8; stroke-linecap: square"/>
     </g>
     <g id="line2d_4">
      <g>
       <use xlink:href="#mc465fac9d8" x="82.866458" y="529.478125" style="stroke: #000000; stroke-width: 0.8"/>
      </g>
     </g>
     <g id="text_2">
      <!-- −2 -->
      <g transform="translate(75.495365 544.076562) scale(0.1 -0.1)">
       <defs>
        <path id="DejaVuSans-32" d="M 1228 531 
L 3431 531 
L 3431 0 
L 469 0 
L 469 531 
Q 828 903 1448 1529 
Q 2069 2156 2228 2338 
Q 2531 2678 2651 2914 
Q 2772 3150 2772 3378 
Q 2772 3750 2511 3984 
Q 2250 4219 1831 4219 
Q 1534 4219 1204 4116 
Q 875 4013 500 3803 
L 500 4441 
Q 881 4594 1212 4672 
Q 1544 4750 1819 4750 
Q 2544 4750 2975 4387 
Q 3406 4025 3406 3419 
Q 3406 3131 3298 2873 
Q 3191 2616 2906 2266 
Q 2828 2175 2409 1742 
Q 1991 1309 1228 531 
z
" transform="scale(0.015625)"/>
       </defs>
       <use xlink:href="#DejaVuSans-2212"/>
       <use xlink:href="#DejaVuSans-32" transform="translate(83.789062 0)"/>
      </g>
     </g>
    </g>
    <g id="xtick_3">
     <g id="line2d_5">
      <path d="M 125.129792 529.478125 
L 125.129792 22.318125 
" clip-path="url(#p31efab1d0a)" style="fill: none; stroke: #b0b0b0; stroke-opacity: 0.25; stroke-width: 0.8; stroke-linecap: square"/>
     </g>
     <g id="line2d_6">
      <g>
       <use xlink:href="#mc465fac9d8" x="125.129792" y="529.478125" style="stroke: #000000; stroke-width: 0.8"/>
      </g>
     </g>
     <g id="text_3">
      <!-- −1 -->
      <g transform="translate(117.758698 544.076562) scale(0.1 -0.1)">
       <defs>
        <path id="DejaVuSans-31" d="M 794 531 
L 1825 531 
L 1825 4091 
L 703 3866 
L 703 4441 
L 1819 4666 
L 2450 4666 
L 2450 531 
L 3481 531 
L 3481 0 
L 794 0 
L 794 531 
z
" transform="scale(0.015625)"/>
       </defs>
       <use xlink:href="#DejaVuSans-2212"/>
       <use xlink:href="#DejaVuSans-31" transform="translate(83.789062 0)"/>
      </g>
     </g>
    </g>
    <g id="xtick_4">
     <g id="line2d_7">
      <path d="M 167.393125 529.478125 
L 167.393125 22.318125 
" clip-path="url(#p31efab1d0a)" style="fill: none; stroke: #b0b0b0; stroke-opacity: 0.25; stroke-width: 0.8; stroke-linecap: square"/>
     </g>
     <g id="line2d_8">
      <g>
       <use xlink:href="#mc465fac9d8" x="167.393125" y="529.478125" style="stroke: #000000; stroke-width: 0.8"/>
      </g>
     </g>
     <g id="text_4">
      <!-- 0 -->
      <g transform="translate(164.211875 544.076562) scale(0.1 -0.1)">
       <defs>
        <path id="DejaVuSans-30" d="M 2034 4250 
Q 1547 4250 1301 3770 
Q 1056 3291 1056 2328 
Q 1056 1369 1301 889 
Q 1547 409 2034 409 
Q 2525 409 2770 889 
Q 3016 1369 3016 2328 
Q 3016 3291 2770 3770 
Q 2525 4250 2034 4250 
z
M 2034 4750 
Q 2819 4750 3233 4129 
Q 3647 3509 3647 2328 
Q 3647 1150 3233 529 
Q 2819 -91 2034 -91 
Q 1250 -91 836 529 
Q 422 1150 422 2328 
Q 422 3509 836 4129 
Q 1250 4750 2034 4750 
z
" transform="scale(0.015625)"/>
       </defs>
       <use xlink:href="#DejaVuSans-30"/>
      </g>
     </g>
    </g>
    <g id="xtick_5">
     <g id="line2d_9">
      <path d="M 209.656458 529.478125 
L 209.656458 22.318125 
" clip-path="url(#p31efab1d0a)" style="fill: none; stroke: #b0b0b0; stroke-opacity: 0.25; stroke-width: 0.8; stroke-linecap: square"/>
     </g>
     <g id="line2d_10">
      <g>
       <use xlink:href="#mc465fac9d8" x="209.656458" y="529.478125" style="stroke: #000000; stroke-width: 0.8"/>
      </g>
     </g>
     <g id="text_5">
      <!-- 1 -->
      <g transform="translate(206.475208 544.076562) scale(0.1 -0.1)">
       <use xlink:href="#DejaVuSans-31"/>
      </g>
     </g>
    </g>
    <g id="xtick_6">
     <g id="line2d_11">
      <path d="M 251.919792 529.478125 
L 251.919792 22.318125 
" clip-path="url(#p31efab1d0a)" style="fill: none; stroke: #b0b0b0; stroke-opacity: 0.25; stroke-width: 0.8; stroke-linecap: square"/>
     </g>
     <g id="line2d_12">
      <g>
       <use xlink:href="#mc465fac9d8" x="251.919792" y="529.478125" style="stroke: #000000; stroke-width: 0.8"/>
      </g>
     </g>
     <g id="text_6">
      <!-- 2 -->
      <g transform="translate(248.738542 544.076562) scale(0.1 -0.1)">
       <use xlink:href="#DejaVuSans-32"/>
      </g>
     </g>
    </g>
    <g id="xtick_7">
     <g id="line2d_13">
      <path d="M 294.183125 529.478125 
L 294.183125 22.318125 
" clip-path="url(#p31efab1d0a)" style="fill: none; stroke: #b0b0b0; stroke-opacity: 0.25; stroke-width: 0.8; stroke-linecap: square"/>
     </g>
     <g id="line2d_14">
      <g>
       <use xlink:href="#mc465fac9d8" x="294.183125" y="529.478125" style="stroke: #000000; stroke-width: 0.8"/>
      </g>
     </g>
     <g id="text_7">
      <!-- 3 -->
      <g transform="translate(291.001875 544.076562) scale(0.1 -0.1)">
       <use xlink:href="#DejaVuSans-33"/>
      </g>
     </g>
    </g>
    <g id="text_8">
     <!-- X -->
     <g transform="translate(163.968125 557.754687) scale(0.1 -0.1)">
      <defs>
       <path id="DejaVuSans-58" d="M 403 4666 
L 1081 4666 
L 2241 2931 
L 3406 4666 
L 4084 4666 
L 2584 2425 
L 4184 0 
L 3506 0 
L 2194 1984 
L 872 0 
L 191 0 
L 1856 2491 
L 403 4666 
z
" transform="scale(0.015625)"/>
      </defs>
      <use xlink:href="#DejaVuSans-58"/>
     </g>
    </g>
   </g>
   <g id="matplotlib.axis_2">
    <g id="ytick_1">
     <g id="line2d_15">
      <path d="M 40.603125 529.478125 
L 294.183125 529.478125 
" clip-path="url(#p31efab1d0a)" style="fill: none; stroke: #b0b0b0; stroke-opacity: 0.25; stroke-width: 0.8; stroke-linecap: square"/>
     </g>
     <g id="line2d_16">
      <defs>
       <path id="m0f49605850" d="M 0 0 
L -3.5 0 
" style="stroke: #000000; stroke-width: 0.8"/>
      </defs>
      <g>
       <use xlink:href="#m0f49605850" x="40.603125" y="529.478125" style="stroke: #000000; stroke-width: 0.8"/>
      </g>
     </g>
     <g id="text_9">
      <!-- 30 -->
      <g transform="translate(20.878125 533.277344) scale(0.1 -0.1)">
       <use xlink:href="#DejaVuSans-33"/>
       <use xlink:href="#DejaVuSans-30" transform="translate(63.623047 0)"/>
      </g>
     </g>
    </g>
    <g id="ytick_2">
     <g id="line2d_17">
      <path d="M 40.603125 444.951458 
L 294.183125 444.951458 
" clip-path="url(#p31efab1d0a)" style="fill: none; stroke: #b0b0b0; stroke-opacity: 0.25; stroke-width: 0.8; stroke-linecap: square"/>
     </g>
     <g id="line2d_18">
      <g>
       <use xlink:href="#m0f49605850" x="40.603125" y="444.951458" style="stroke: #000000; stroke-width: 0.8"/>
      </g>
     </g>
     <g id="text_10">
      <!-- 32 -->
      <g transform="translate(20.878125 448.750677) scale(0.1 -0.1)">
       <use xlink:href="#DejaVuSans-33"/>
       <use xlink:href="#DejaVuSans-32" transform="translate(63.623047 0)"/>
      </g>
     </g>
    </g>
    <g id="ytick_3">
     <g id="line2d_19">
      <path d="M 40.603125 360.424792 
L 294.183125 360.424792 
" clip-path="url(#p31efab1d0a)" style="fill: none; stroke: #b0b0b0; stroke-opacity: 0.25; stroke-width: 0.8; stroke-linecap: square"/>
     </g>
     <g id="line2d_20">
      <g>
       <use xlink:href="#m0f49605850" x="40.603125" y="360.424792" style="stroke: #000000; stroke-width: 0.8"/>
      </g>
     </g>
     <g id="text_11">
      <!-- 34 -->
      <g transform="translate(20.878125 364.22401) scale(0.1 -0.1)">
       <defs>
        <path id="DejaVuSans-34" d="M 2419 4116 
L 825 1625 
L 2419 1625 
L 2419 4116 
z
M 2253 4666 
L 3047 4666 
L 3047 1625 
L 3713 1625 
L 3713 1100 
L 3047 1100 
L 3047 0 
L 2419 0 
L 2419 1100 
L 313 1100 
L 313 1709 
L 2253 4666 
z
" transform="scale(0.015625)"/>
       </defs>
       <use xlink:href="#DejaVuSans-33"/>
       <use xlink:href="#DejaVuSans-34" transform="translate(63.623047 0)"/>
      </g>
     </g>
    </g>
    <g id="ytick_4">
     <g id="line2d_21">
      <path d="M 40.603125 275.898125 
L 294.183125 275.898125 
" clip-path="url(#p31efab1d0a)" style="fill: none; stroke: #b0b0b0; stroke-opacity: 0.25; stroke-width: 0.8; stroke-linecap: square"/>
     </g>
     <g id="line2d_22">
      <g>
       <use xlink:href="#m0f49605850" x="40.603125" y="275.898125" style="stroke: #000000; stroke-width: 0.8"/>
      </g>
     </g>
     <g id="text_12">
      <!-- 36 -->
      <g transform="translate(20.878125 279.697344) scale(0.1 -0.1)">
       <defs>
        <path id="DejaVuSans-36" d="M 2113 2584 
Q 1688 2584 1439 2293 
Q 1191 2003 1191 1497 
Q 1191 994 1439 701 
Q 1688 409 2113 409 
Q 2538 409 2786 701 
Q 3034 994 3034 1497 
Q 3034 2003 2786 2293 
Q 2538 2584 2113 2584 
z
M 3366 4563 
L 3366 3988 
Q 3128 4100 2886 4159 
Q 2644 4219 2406 4219 
Q 1781 4219 1451 3797 
Q 1122 3375 1075 2522 
Q 1259 2794 1537 2939 
Q 1816 3084 2150 3084 
Q 2853 3084 3261 2657 
Q 3669 2231 3669 1497 
Q 3669 778 3244 343 
Q 2819 -91 2113 -91 
Q 1303 -91 875 529 
Q 447 1150 447 2328 
Q 447 3434 972 4092 
Q 1497 4750 2381 4750 
Q 2619 4750 2861 4703 
Q 3103 4656 3366 4563 
z
" transform="scale(0.015625)"/>
       </defs>
       <use xlink:href="#DejaVuSans-33"/>
       <use xlink:href="#DejaVuSans-36" transform="translate(63.623047 0)"/>
      </g>
     </g>
    </g>
    <g id="ytick_5">
     <g id="line2d_23">
      <path d="M 40.603125 191.371458 
L 294.183125 191.371458 
" clip-path="url(#p31efab1d0a)" style="fill: none; stroke: #b0b0b0; stroke-opacity: 0.25; stroke-width: 0.8; stroke-linecap: square"/>
     </g>
     <g id="line2d_24">
      <g>
       <use xlink:href="#m0f49605850" x="40.603125" y="191.371458" style="stroke: #000000; stroke-width: 0.8"/>
      </g>
     </g>
     <g id="text_13">
      <!-- 38 -->
      <g transform="translate(20.878125 195.170677) scale(0.1 -0.1)">
       <defs>
        <path id="DejaVuSans-38" d="M 2034 2216 
Q 1584 2216 1326 1975 
Q 1069 1734 1069 1313 
Q 1069 891 1326 650 
Q 1584 409 2034 409 
Q 2484 409 2743 651 
Q 3003 894 3003 1313 
Q 3003 1734 2745 1975 
Q 2488 2216 2034 2216 
z
M 1403 2484 
Q 997 2584 770 2862 
Q 544 3141 544 3541 
Q 544 4100 942 4425 
Q 1341 4750 2034 4750 
Q 2731 4750 3128 4425 
Q 3525 4100 3525 3541 
Q 3525 3141 3298 2862 
Q 3072 2584 2669 2484 
Q 3125 2378 3379 2068 
Q 3634 1759 3634 1313 
Q 3634 634 3220 271 
Q 2806 -91 2034 -91 
Q 1263 -91 848 271 
Q 434 634 434 1313 
Q 434 1759 690 2068 
Q 947 2378 1403 2484 
z
M 1172 3481 
Q 1172 3119 1398 2916 
Q 1625 2713 2034 2713 
Q 2441 2713 2670 2916 
Q 2900 3119 2900 3481 
Q 2900 3844 2670 4047 
Q 2441 4250 2034 4250 
Q 1625 4250 1398 4047 
Q 1172 3844 1172 3481 
z
" transform="scale(0.015625)"/>
       </defs>
       <use xlink:href="#DejaVuSans-33"/>
       <use xlink:href="#DejaVuSans-38" transform="translate(63.623047 0)"/>
      </g>
     </g>
    </g>
    <g id="ytick_6">
     <g id="line2d_25">
      <path d="M 40.603125 106.844792 
L 294.183125 106.844792 
" clip-path="url(#p31efab1d0a)" style="fill: none; stroke: #b0b0b0; stroke-opacity: 0.25; stroke-width: 0.8; stroke-linecap: square"/>
     </g>
     <g id="line2d_26">
      <g>
       <use xlink:href="#m0f49605850" x="40.603125" y="106.844792" style="stroke: #000000; stroke-width: 0.8"/>
      </g>
     </g>
     <g id="text_14">
      <!-- 40 -->
      <g transform="translate(20.878125 110.64401) scale(0.1 -0.1)">
       <use xlink:href="#DejaVuSans-34"/>
       <use xlink:href="#DejaVuSans-30" transform="translate(63.623047 0)"/>
      </g>
     </g>
    </g>
    <g id="ytick_7">
     <g id="line2d_27">
      <path d="M 40.603125 22.318125 
L 294.183125 22.318125 
" clip-path="url(#p31efab1d0a)" style="fill: none; stroke: #b0b0b0; stroke-opacity: 0.25; stroke-width: 0.8; stroke-linecap: square"/>
     </g>
     <g id="line2d_28">
      <g>
       <use xlink:href="#m0f49605850" x="40.603125" y="22.318125" style="stroke: #000000; stroke-width: 0.8"/>
      </g>
     </g>
     <g id="text_15">
      <!-- 42 -->
      <g transform="translate(20.878125 26.117344) scale(0.1 -0.1)">
       <use xlink:href="#DejaVuSans-34"/>
       <use xlink:href="#DejaVuSans-32" transform="translate(63.623047 0)"/>
      </g>
     </g>
    </g>
    <g id="text_16">
     <!-- Y -->
     <g transform="translate(14.798438 278.952031) rotate(-90) scale(0.1 -0.1)">
      <defs>
       <path id="DejaVuSans-59" d="M -13 4666 
L 666 4666 
L 1959 2747 
L 3244 4666 
L 3922 4666 
L 2272 2222 
L 2272 0 
L 1638 0 
L 1638 2222 
L -13 4666 
z
" transform="scale(0.015625)"/>
      </defs>
      <use xlink:href="#DejaVuSans-59"/>
     </g>
    </g>
   </g>
   <g id="patch_16">
    <path d="M 40.603125 529.478125 
L 40.603125 22.318125 
" style="fill: none; stroke: #000000; stroke-width: 0.8; stroke-linejoin: miter; stroke-linecap: square"/>
   </g>
   <g id="patch_17">
    <path d="M 294.183125 529.478125 
L 294.183125 22.318125 
" style="fill: none; stroke: #000000; stroke-width: 0.8; stroke-linejoin: miter; stroke-linecap: square"/>
   </g>
   <g id="patch_18">
    <path d="M 40.603125 529.478125 
L 294.183125 529.478125 
" style="fill: none; stroke: #000000; stroke-width: 0.8; stroke-linejoin: miter; stroke-linecap: square"/>
   </g>
   <g id="patch_19">
    <path d="M 40.603125 22.318125 
L 294.183125 22.318125 
" style="fill: none; stroke: #000000; stroke-width: 0.8; stroke-linejoin: miter; stroke-linecap: square"/>
   </g>
   <g id="text_17">
    <!-- 2 -->
    <g style="fill: #ffffff" transform="translate(131.056827 178.076029) scale(0.08 -0.08)">
     <defs>
      <path id="DejaVuSans-Bold-32" d="M 1844 884 
L 3897 884 
L 3897 0 
L 506 0 
L 506 884 
L 2209 2388 
Q 2438 2594 2547 2791 
Q 2656 2988 2656 3200 
Q 2656 3528 2436 3728 
Q 2216 3928 1850 3928 
Q 1569 3928 1234 3808 
Q 900 3688 519 3450 
L 519 4475 
Q 925 4609 1322 4679 
Q 1719 4750 2100 4750 
Q 2938 4750 3402 4381 
Q 3866 4013 3866 3353 
Q 3866 2972 3669 2642 
Q 3472 2313 2841 1759 
L 1844 884 
z
" transform="scale(0.015625)"/>
     </defs>
     <use xlink:href="#DejaVuSans-Bold-32"/>
    </g>
   </g>
   <g id="text_18">
    <!-- 3 -->
    <g style="fill: #ffffff" transform="translate(149.288794 181.108128) scale(0.08 -0.08)">
     <defs>
      <path id="DejaVuSans-Bold-33" d="M 2981 2516 
Q 3453 2394 3698 2092 
Q 3944 1791 3944 1325 
Q 3944 631 3412 270 
Q 2881 -91 1863 -91 
Q 1503 -91 1142 -33 
Q 781 25 428 141 
L 428 1069 
Q 766 900 1098 814 
Q 1431 728 1753 728 
Q 2231 728 2486 893 
Q 2741 1059 2741 1369 
Q 2741 1688 2480 1852 
Q 2219 2016 1709 2016 
L 1228 2016 
L 1228 2791 
L 1734 2791 
Q 2188 2791 2409 2933 
Q 2631 3075 2631 3366 
Q 2631 3634 2415 3781 
Q 2200 3928 1806 3928 
Q 1516 3928 1219 3862 
Q 922 3797 628 3669 
L 628 4550 
Q 984 4650 1334 4700 
Q 1684 4750 2022 4750 
Q 2931 4750 3382 4451 
Q 3834 4153 3834 3553 
Q 3834 3144 3618 2883 
Q 3403 2622 2981 2516 
z
" transform="scale(0.015625)"/>
     </defs>
     <use xlink:href="#DejaVuSans-Bold-33"/>
    </g>
   </g>
   <g id="text_19">
    <!-- 4 -->
    <g style="fill: #ffffff" transform="translate(135.955421 202.382315) scale(0.08 -0.08)">
     <defs>
      <path id="DejaVuSans-Bold-34" d="M 2356 3675 
L 1038 1722 
L 2356 1722 
L 2356 3675 
z
M 2156 4666 
L 3494 4666 
L 3494 1722 
L 4159 1722 
L 4159 850 
L 3494 850 
L 3494 0 
L 2356 0 
L 2356 850 
L 288 850 
L 288 1881 
L 2156 4666 
z
" transform="scale(0.015625)"/>
     </defs>
     <use xlink:href="#DejaVuSans-Bold-34"/>
    </g>
   </g>
   <g id="text_20">
    <!-- 5 -->
    <g style="fill: #ffffff" transform="translate(138.420052 220.157182) scale(0.08 -0.08)">
     <defs>
      <path id="DejaVuSans-Bold-35" d="M 678 4666 
L 3669 4666 
L 3669 3781 
L 1638 3781 
L 1638 3059 
Q 1775 3097 1914 3117 
Q 2053 3138 2203 3138 
Q 3056 3138 3531 2711 
Q 4006 2284 4006 1522 
Q 4006 766 3489 337 
Q 2972 -91 2053 -91 
Q 1656 -91 1267 -14 
Q 878 63 494 219 
L 494 1166 
Q 875 947 1217 837 
Q 1559 728 1863 728 
Q 2300 728 2551 942 
Q 2803 1156 2803 1522 
Q 2803 1891 2551 2103 
Q 2300 2316 1863 2316 
Q 1603 2316 1309 2248 
Q 1016 2181 678 2041 
L 678 4666 
z
" transform="scale(0.015625)"/>
     </defs>
     <use xlink:href="#DejaVuSans-Bold-35"/>
    </g>
   </g>
   <g id="text_21">
    <!-- 6 -->
    <g style="fill: #ffffff" transform="translate(188.398053 150.283644) scale(0.08 -0.08)">
     <defs>
      <path id="DejaVuSans-Bold-36" d="M 2316 2303 
Q 2000 2303 1842 2098 
Q 1684 1894 1684 1484 
Q 1684 1075 1842 870 
Q 2000 666 2316 666 
Q 2634 666 2792 870 
Q 2950 1075 2950 1484 
Q 2950 1894 2792 2098 
Q 2634 2303 2316 2303 
z
M 3803 4544 
L 3803 3681 
Q 3506 3822 3243 3889 
Q 2981 3956 2731 3956 
Q 2194 3956 1894 3657 
Q 1594 3359 1544 2772 
Q 1750 2925 1990 3001 
Q 2231 3078 2516 3078 
Q 3231 3078 3670 2659 
Q 4109 2241 4109 1563 
Q 4109 813 3618 361 
Q 3128 -91 2303 -91 
Q 1394 -91 895 523 
Q 397 1138 397 2266 
Q 397 3422 980 4083 
Q 1563 4744 2578 4744 
Q 2900 4744 3203 4694 
Q 3506 4644 3803 4544 
z
" transform="scale(0.015625)"/>
     </defs>
     <use xlink:href="#DejaVuSans-Bold-36"/>
    </g>
   </g>
   <g id="text_22">
    <!-- 2 -->
    <g transform="translate(168.717683 186.580641) scale(0.08 -0.08)">
     <use xlink:href="#DejaVuSans-Bold-32"/>
    </g>
   </g>
   <g id="text_23">
    <!-- 4 -->
    <g transform="translate(172.555883 200.331573) scale(0.08 -0.08)">
     <use xlink:href="#DejaVuSans-Bold-34"/>
    </g>
   </g>
   <g id="text_24">
    <!-- 5 -->
    <g transform="translate(157.916408 209.474946) scale(0.08 -0.08)">
     <use xlink:href="#DejaVuSans-Bold-35"/>
    </g>
   </g>
   <g id="text_25">
    <!-- 6 -->
    <g transform="translate(182.693476 224.593039) scale(0.08 -0.08)">
     <use xlink:href="#DejaVuSans-Bold-36"/>
    </g>
   </g>
   <g id="text_26">
    <!-- 7 -->
    <g transform="translate(155.540813 241.842484) scale(0.08 -0.08)">
     <defs>
      <path id="DejaVuSans-Bold-37" d="M 428 4666 
L 3944 4666 
L 3944 3988 
L 2125 0 
L 953 0 
L 2675 3781 
L 428 3781 
L 428 4666 
z
" transform="scale(0.015625)"/>
     </defs>
     <use xlink:href="#DejaVuSans-Bold-37"/>
    </g>
   </g>
   <g id="text_27">
    <!-- 8 -->
    <g transform="translate(205.294715 235.46471) scale(0.08 -0.08)">
     <defs>
      <path id="DejaVuSans-Bold-38" d="M 2228 2088 
Q 1891 2088 1709 1903 
Q 1528 1719 1528 1375 
Q 1528 1031 1709 848 
Q 1891 666 2228 666 
Q 2563 666 2741 848 
Q 2919 1031 2919 1375 
Q 2919 1722 2741 1905 
Q 2563 2088 2228 2088 
z
M 1350 2484 
Q 925 2613 709 2878 
Q 494 3144 494 3541 
Q 494 4131 934 4440 
Q 1375 4750 2228 4750 
Q 3075 4750 3515 4442 
Q 3956 4134 3956 3541 
Q 3956 3144 3739 2878 
Q 3522 2613 3097 2484 
Q 3572 2353 3814 2058 
Q 4056 1763 4056 1313 
Q 4056 619 3595 264 
Q 3134 -91 2228 -91 
Q 1319 -91 855 264 
Q 391 619 391 1313 
Q 391 1763 633 2058 
Q 875 2353 1350 2484 
z
M 1631 3419 
Q 1631 3141 1786 2991 
Q 1941 2841 2228 2841 
Q 2509 2841 2662 2991 
Q 2816 3141 2816 3419 
Q 2816 3697 2662 3845 
Q 2509 3994 2228 3994 
Q 1941 3994 1786 3844 
Q 1631 3694 1631 3419 
z
" transform="scale(0.015625)"/>
     </defs>
     <use xlink:href="#DejaVuSans-Bold-38"/>
    </g>
   </g>
   <g id="text_28">
    <!-- End 2 TotalShot 16 / Shooter=team1 -->
    <g transform="translate(57.46 16.318125) scale(0.12 -0.12)">
     <defs>
      <path id="DejaVuSans-45" d="M 628 4666 
L 3578 4666 
L 3578 4134 
L 1259 4134 
L 1259 2753 
L 3481 2753 
L 3481 2222 
L 1259 2222 
L 1259 531 
L 3634 531 
L 3634 0 
L 628 0 
L 628 4666 
z
" transform="scale(0.015625)"/>
      <path id="DejaVuSans-6e" d="M 3513 2113 
L 3513 0 
L 2938 0 
L 2938 2094 
Q 2938 2591 2744 2837 
Q 2550 3084 2163 3084 
Q 1697 3084 1428 2787 
Q 1159 2491 1159 1978 
L 1159 0 
L 581 0 
L 581 3500 
L 1159 3500 
L 1159 2956 
Q 1366 3272 1645 3428 
Q 1925 3584 2291 3584 
Q 2894 3584 3203 3211 
Q 3513 2838 3513 2113 
z
" transform="scale(0.015625)"/>
      <path id="DejaVuSans-64" d="M 2906 2969 
L 2906 4863 
L 3481 4863 
L 3481 0 
L 2906 0 
L 2906 525 
Q 2725 213 2448 61 
Q 2172 -91 1784 -91 
Q 1150 -91 751 415 
Q 353 922 353 1747 
Q 353 2572 751 3078 
Q 1150 3584 1784 3584 
Q 2172 3584 2448 3432 
Q 2725 3281 2906 2969 
z
M 947 1747 
Q 947 1113 1208 752 
Q 1469 391 1925 391 
Q 2381 391 2643 752 
Q 2906 1113 2906 1747 
Q 2906 2381 2643 2742 
Q 2381 3103 1925 3103 
Q 1469 3103 1208 2742 
Q 947 2381 947 1747 
z
" transform="scale(0.015625)"/>
      <path id="DejaVuSans-20" transform="scale(0.015625)"/>
      <path id="DejaVuSans-54" d="M -19 4666 
L 3928 4666 
L 3928 4134 
L 2272 4134 
L 2272 0 
L 1638 0 
L 1638 4134 
L -19 4134 
L -19 4666 
z
" transform="scale(0.015625)"/>
      <path id="DejaVuSans-6f" d="M 1959 3097 
Q 1497 3097 1228 2736 
Q 959 2375 959 1747 
Q 959 1119 1226 758 
Q 1494 397 1959 397 
Q 2419 397 2687 759 
Q 2956 1122 2956 1747 
Q 2956 2369 2687 2733 
Q 2419 3097 1959 3097 
z
M 1959 3584 
Q 2709 3584 3137 3096 
Q 3566 2609 3566 1747 
Q 3566 888 3137 398 
Q 2709 -91 1959 -91 
Q 1206 -91 779 398 
Q 353 888 353 1747 
Q 353 2609 779 3096 
Q 1206 3584 1959 3584 
z
" transform="scale(0.015625)"/>
      <path id="DejaVuSans-74" d="M 1172 4494 
L 1172 3500 
L 2356 3500 
L 2356 3053 
L 1172 3053 
L 1172 1153 
Q 1172 725 1289 603 
Q 1406 481 1766 481 
L 2356 481 
L 2356 0 
L 1766 0 
Q 1100 0 847 248 
Q 594 497 594 1153 
L 594 3053 
L 172 3053 
L 172 3500 
L 594 3500 
L 594 4494 
L 1172 4494 
z
" transform="scale(0.015625)"/>
      <path id="DejaVuSans-61" d="M 2194 1759 
Q 1497 1759 1228 1600 
Q 959 1441 959 1056 
Q 959 750 1161 570 
Q 1363 391 1709 391 
Q 2188 391 2477 730 
Q 2766 1069 2766 1631 
L 2766 1759 
L 2194 1759 
z
M 3341 1997 
L 3341 0 
L 2766 0 
L 2766 531 
Q 2569 213 2275 61 
Q 1981 -91 1556 -91 
Q 1019 -91 701 211 
Q 384 513 384 1019 
Q 384 1609 779 1909 
Q 1175 2209 1959 2209 
L 2766 2209 
L 2766 2266 
Q 2766 2663 2505 2880 
Q 2244 3097 1772 3097 
Q 1472 3097 1187 3025 
Q 903 2953 641 2809 
L 641 3341 
Q 956 3463 1253 3523 
Q 1550 3584 1831 3584 
Q 2591 3584 2966 3190 
Q 3341 2797 3341 1997 
z
" transform="scale(0.015625)"/>
      <path id="DejaVuSans-6c" d="M 603 4863 
L 1178 4863 
L 1178 0 
L 603 0 
L 603 4863 
z
" transform="scale(0.015625)"/>
      <path id="DejaVuSans-53" d="M 3425 4513 
L 3425 3897 
Q 3066 4069 2747 4153 
Q 2428 4238 2131 4238 
Q 1616 4238 1336 4038 
Q 1056 3838 1056 3469 
Q 1056 3159 1242 3001 
Q 1428 2844 1947 2747 
L 2328 2669 
Q 3034 2534 3370 2195 
Q 3706 1856 3706 1288 
Q 3706 609 3251 259 
Q 2797 -91 1919 -91 
Q 1588 -91 1214 -16 
Q 841 59 441 206 
L 441 856 
Q 825 641 1194 531 
Q 1563 422 1919 422 
Q 2459 422 2753 634 
Q 3047 847 3047 1241 
Q 3047 1584 2836 1778 
Q 2625 1972 2144 2069 
L 1759 2144 
Q 1053 2284 737 2584 
Q 422 2884 422 3419 
Q 422 4038 858 4394 
Q 1294 4750 2059 4750 
Q 2388 4750 2728 4690 
Q 3069 4631 3425 4513 
z
" transform="scale(0.015625)"/>
      <path id="DejaVuSans-68" d="M 3513 2113 
L 3513 0 
L 2938 0 
L 2938 2094 
Q 2938 2591 2744 2837 
Q 2550 3084 2163 3084 
Q 1697 3084 1428 2787 
Q 1159 2491 1159 1978 
L 1159 0 
L 581 0 
L 581 4863 
L 1159 4863 
L 1159 2956 
Q 1366 3272 1645 3428 
Q 1925 3584 2291 3584 
Q 2894 3584 3203 3211 
Q 3513 2838 3513 2113 
z
" transform="scale(0.015625)"/>
      <path id="DejaVuSans-2f" d="M 1625 4666 
L 2156 4666 
L 531 -594 
L 0 -594 
L 1625 4666 
z
" transform="scale(0.015625)"/>
      <path id="DejaVuSans-65" d="M 3597 1894 
L 3597 1613 
L 953 1613 
Q 991 1019 1311 708 
Q 1631 397 2203 397 
Q 2534 397 2845 478 
Q 3156 559 3463 722 
L 3463 178 
Q 3153 47 2828 -22 
Q 2503 -91 2169 -91 
Q 1331 -91 842 396 
Q 353 884 353 1716 
Q 353 2575 817 3079 
Q 1281 3584 2069 3584 
Q 2775 3584 3186 3129 
Q 3597 2675 3597 1894 
z
M 3022 2063 
Q 3016 2534 2758 2815 
Q 2500 3097 2075 3097 
Q 1594 3097 1305 2825 
Q 1016 2553 972 2059 
L 3022 2063 
z
" transform="scale(0.015625)"/>
      <path id="DejaVuSans-72" d="M 2631 2963 
Q 2534 3019 2420 3045 
Q 2306 3072 2169 3072 
Q 1681 3072 1420 2755 
Q 1159 2438 1159 1844 
L 1159 0 
L 581 0 
L 581 3500 
L 1159 3500 
L 1159 2956 
Q 1341 3275 1631 3429 
Q 1922 3584 2338 3584 
Q 2397 3584 2469 3576 
Q 2541 3569 2628 3553 
L 2631 2963 
z
" transform="scale(0.015625)"/>
      <path id="DejaVuSans-3d" d="M 678 2906 
L 4684 2906 
L 4684 2381 
L 678 2381 
L 678 2906 
z
M 678 1631 
L 4684 1631 
L 4684 1100 
L 678 1100 
L 678 1631 
z
" transform="scale(0.015625)"/>
      <path id="DejaVuSans-6d" d="M 3328 2828 
Q 3544 3216 3844 3400 
Q 4144 3584 4550 3584 
Q 5097 3584 5394 3201 
Q 5691 2819 5691 2113 
L 5691 0 
L 5113 0 
L 5113 2094 
Q 5113 2597 4934 2840 
Q 4756 3084 4391 3084 
Q 3944 3084 3684 2787 
Q 3425 2491 3425 1978 
L 3425 0 
L 2847 0 
L 2847 2094 
Q 2847 2600 2669 2842 
Q 2491 3084 2119 3084 
Q 1678 3084 1418 2786 
Q 1159 2488 1159 1978 
L 1159 0 
L 581 0 
L 581 3500 
L 1159 3500 
L 1159 2956 
Q 1356 3278 1631 3431 
Q 1906 3584 2284 3584 
Q 2666 3584 2933 3390 
Q 3200 3197 3328 2828 
z
" transform="scale(0.015625)"/>
     </defs>
     <use xlink:href="#DejaVuSans-45"/>
     <use xlink:href="#DejaVuSans-6e" transform="translate(63.183594 0)"/>
     <use xlink:href="#DejaVuSans-64" transform="translate(126.5625 0)"/>
     <use xlink:href="#DejaVuSans-20" transform="translate(190.039062 0)"/>
     <use xlink:href="#DejaVuSans-32" transform="translate(221.826172 0)"/>
     <use xlink:href="#DejaVuSans-20" transform="translate(285.449219 0)"/>
     <use xlink:href="#DejaVuSans-54" transform="translate(317.236328 0)"/>
     <use xlink:href="#DejaVuSans-6f" transform="translate(361.320312 0)"/>
     <use xlink:href="#DejaVuSans-74" transform="translate(422.501953 0)"/>
     <use xlink:href="#DejaVuSans-61" transform="translate(461.710938 0)"/>
     <use xlink:href="#DejaVuSans-6c" transform="translate(522.990234 0)"/>
     <use xlink:href="#DejaVuSans-53" transform="translate(550.773438 0)"/>
     <use xlink:href="#DejaVuSans-68" transform="translate(614.25 0)"/>
     <use xlink:href="#DejaVuSans-6f" transform="translate(677.628906 0)"/>
     <use xlink:href="#DejaVuSans-74" transform="translate(738.810547 0)"/>
     <use xlink:href="#DejaVuSans-20" transform="translate(778.019531 0)"/>
     <use xlink:href="#DejaVuSans-31" transform="translate(809.806641 0)"/>
     <use xlink:href="#DejaVuSans-36" transform="translate(873.429688 0)"/>
     <use xlink:href="#DejaVuSans-20" transform="translate(937.052734 0)"/>
     <use xlink:href="#DejaVuSans-2f" transform="translate(968.839844 0)"/>
     <use xlink:href="#DejaVuSans-20" transform="translate(1002.53125 0)"/>
     <use xlink:href="#DejaVuSans-53" transform="translate(1034.318359 0)"/>
     <use xlink:href="#DejaVuSans-68" transform="translate(1097.794922 0)"/>
     <use xlink:href="#DejaVuSans-6f" transform="translate(1161.173828 0)"/>
     <use xlink:href="#DejaVuSans-6f" transform="translate(1222.355469 0)"/>
     <use xlink:href="#DejaVuSans-74" transform="translate(1283.537109 0)"/>
     <use xlink:href="#DejaVuSans-65" transform="translate(1322.746094 0)"/>
     <use xlink:href="#DejaVuSans-72" transform="translate(1384.269531 0)"/>
     <use xlink:href="#DejaVuSans-3d" transform="translate(1425.382812 0)"/>
     <use xlink:href="#DejaVuSans-74" transform="translate(1509.171875 0)"/>
     <use xlink:href="#DejaVuSans-65" transform="translate(1548.380859 0)"/>
     <use xlink:href="#DejaVuSans-61" transform="translate(1609.904297 0)"/>
     <use xlink:href="#DejaVuSans-6d" transform="translate(1671.183594 0)"/>
     <use xlink:href="#DejaVuSans-31" transform="translate(1768.595703 0)"/>
    </g>
   </g>
   <g id="legend_1">
    <g id="patch_20">
     <path d="M 301.254725 84.030625 
L 365.559413 84.030625 
Q 367.559413 84.030625 367.559413 82.030625 
L 367.559413 24.318125 
Q 367.559413 22.318125 365.559413 22.318125 
L 301.254725 22.318125 
Q 299.254725 22.318125 299.254725 24.318125 
L 299.254725 82.030625 
Q 299.254725 84.030625 301.254725 84.030625 
z
" style="fill: #ffffff; opacity: 0.8; stroke: #cccccc; stroke-linejoin: miter"/>
    </g>
    <g id="patch_21">
     <path d="M 303.254725 33.916562 
L 323.254725 33.916562 
L 323.254725 26.916562 
L 303.254725 26.916562 
z
" style="fill: #ff0000; stroke: #000000; stroke-linejoin: miter"/>
    </g>
    <g id="text_29">
     <!-- team0 -->
     <g transform="translate(331.254725 33.916562) scale(0.1 -0.1)">
      <use xlink:href="#DejaVuSans-74"/>
      <use xlink:href="#DejaVuSans-65" transform="translate(39.208984 0)"/>
      <use xlink:href="#DejaVuSans-61" transform="translate(100.732422 0)"/>
      <use xlink:href="#DejaVuSans-6d" transform="translate(162.011719 0)"/>
      <use xlink:href="#DejaVuSans-30" transform="translate(259.423828 0)"/>
     </g>
    </g>
    <g id="patch_22">
     <path d="M 303.254725 48.594687 
L 323.254725 48.594687 
L 323.254725 41.594687 
L 303.254725 41.594687 
z
" style="fill: #ffd700; stroke: #000000; stroke-linejoin: miter"/>
    </g>
    <g id="text_30">
     <!-- team1 -->
     <g transform="translate(331.254725 48.594687) scale(0.1 -0.1)">
      <use xlink:href="#DejaVuSans-74"/>
      <use xlink:href="#DejaVuSans-65" transform="translate(39.208984 0)"/>
      <use xlink:href="#DejaVuSans-61" transform="translate(100.732422 0)"/>
      <use xlink:href="#DejaVuSans-6d" transform="translate(162.011719 0)"/>
      <use xlink:href="#DejaVuSans-31" transform="translate(259.423828 0)"/>
     </g>
    </g>
    <g id="line2d_29">
     <defs>
      <path id="ma7dd555350" d="M 0 5 
C 1.326016 5 2.597899 4.473168 3.535534 3.535534 
C 4.473168 2.597899 5 1.326016 5 0 
C 5 -1.326016 4.473168 -2.597899 3.535534 -3.535534 
C 2.597899 -4.473168 1.326016 -5 0 -5 
C -1.326016 -5 -2.597899 -4.473168 -3.535534 -3.535534 
C -4.473168 -2.597899 -5 -1.326016 -5 0 
C -5 1.326016 -4.473168 2.597899 -3.535534 3.535534 
C -2.597899 4.473168 -1.326016 5 0 5 
z
" style="stroke: #808080"/>
     </defs>
     <g>
      <use xlink:href="#ma7dd555350" x="313.254725" y="59.772812" style="fill-opacity: 0; stroke: #808080"/>
     </g>
    </g>
    <g id="text_31">
     <!-- house -->
     <g transform="translate(331.254725 63.272812) scale(0.1 -0.1)">
      <defs>
       <path id="DejaVuSans-75" d="M 544 1381 
L 544 3500 
L 1119 3500 
L 1119 1403 
Q 1119 906 1312 657 
Q 1506 409 1894 409 
Q 2359 409 2629 706 
Q 2900 1003 2900 1516 
L 2900 3500 
L 3475 3500 
L 3475 0 
L 2900 0 
L 2900 538 
Q 2691 219 2414 64 
Q 2138 -91 1772 -91 
Q 1169 -91 856 284 
Q 544 659 544 1381 
z
M 1991 3584 
L 1991 3584 
z
" transform="scale(0.015625)"/>
       <path id="DejaVuSans-73" d="M 2834 3397 
L 2834 2853 
Q 2591 2978 2328 3040 
Q 2066 3103 1784 3103 
Q 1356 3103 1142 2972 
Q 928 2841 928 2578 
Q 928 2378 1081 2264 
Q 1234 2150 1697 2047 
L 1894 2003 
Q 2506 1872 2764 1633 
Q 3022 1394 3022 966 
Q 3022 478 2636 193 
Q 2250 -91 1575 -91 
Q 1294 -91 989 -36 
Q 684 19 347 128 
L 347 722 
Q 666 556 975 473 
Q 1284 391 1588 391 
Q 1994 391 2212 530 
Q 2431 669 2431 922 
Q 2431 1156 2273 1281 
Q 2116 1406 1581 1522 
L 1381 1569 
Q 847 1681 609 1914 
Q 372 2147 372 2553 
Q 372 3047 722 3315 
Q 1072 3584 1716 3584 
Q 2034 3584 2315 3537 
Q 2597 3491 2834 3397 
z
" transform="scale(0.015625)"/>
      </defs>
      <use xlink:href="#DejaVuSans-68"/>
      <use xlink:href="#DejaVuSans-6f" transform="translate(63.378906 0)"/>
      <use xlink:href="#DejaVuSans-75" transform="translate(124.560547 0)"/>
      <use xlink:href="#DejaVuSans-73" transform="translate(187.939453 0)"/>
      <use xlink:href="#DejaVuSans-65" transform="translate(240.039062 0)"/>
     </g>
    </g>
    <g id="line2d_30">
     <defs>
      <path id="m27c8038918" d="M 0 2.5 
C 0.663008 2.5 1.29895 2.236584 1.767767 1.767767 
C 2.236584 1.29895 2.5 0.663008 2.5 0 
C 2.5 -0.663008 2.236584 -1.29895 1.767767 -1.767767 
C 1.29895 -2.236584 0.663008 -2.5 0 -2.5 
C -0.663008 -2.5 -1.29895 -2.236584 -1.767767 -1.767767 
C -2.236584 -1.29895 -2.5 -0.663008 -2.5 0 
C -2.5 0.663008 -2.236584 1.29895 -1.767767 1.767767 
C -1.29895 2.236584 -0.663008 2.5 0 2.5 
z
" style="stroke: #000000"/>
     </defs>
     <g>
      <use xlink:href="#m27c8038918" x="313.254725" y="74.450937" style="stroke: #000000"/>
     </g>
    </g>
    <g id="text_32">
     <!-- TEE -->
     <g transform="translate(331.254725 77.950937) scale(0.1 -0.1)">
      <use xlink:href="#DejaVuSans-54"/>
      <use xlink:href="#DejaVuSans-45" transform="translate(61.083984 0)"/>
      <use xlink:href="#DejaVuSans-45" transform="translate(124.267578 0)"/>
     </g>
    </g>
   </g>
  </g>
 </g>
 <defs>
  <clipPath id="p31efab1d0a">
   <rect x="40.603125" y="22.318125" width="253.58" height="507.16"/>
  </clipPath>
 </defs>
</svg>
