<?xml version="1.0" encoding="utf-8" standalone="no"?>
<!DOCTYPE svg PUBLIC "-//W3C//DTD SVG 1.1//EN"
  "http://www.w3.org/Graphics/SVG/1.1/DTD/svg11.dtd">
<svg xmlns:xlink="http://www.w3.org/1999/xlink" width="374.759412pt" height="567.034375pt" viewBox="0 0 374.759412 567.034375" xmlns="http://www.w3.org/2000/svg" version="1.1">
 <metadata>
  <rdf:RDF xmlns:dc="http://purl.org/dc/elements/1.1/" xmlns:cc="http://creativecommons.org/ns#" xmlns:rdf="http://www.w3.org/1999/02/22-rdf-syntax-ns#">
   <cc:Work>
    <dc:type rdf:resource="http://purl.org/dc/dcmitype/StillImage"/>
    <dc:date>2026-03-04T10:44:26.061224</dc:date>
    <dc:format>image/svg+xml</dc:format>
    <dc:creator>
     <cc:Agent>
      <dc:title>Matplotlib v3.10.8, https://matplotlib.org/</dc:title>
     </cc:Agent>
    </dc:creator>
   </cc:Work>
  </rdf:RDF>
 </metadata>
 <defs>
  <style type="text/css">*{stroke-linejoin: round; stroke-linecap: butt}</style>
 </defs>
 <g id="figure_1">
  <g id="patch_1">
   <path d="M 0 567.034375 
L 374.759412 567.034375 
L 374.759412 0 
L 0 0 
z
" style="fill: #ffffff"/>
  </g>
  <g id="axes_1">
   <g id="patch_2">
    <path d="M 40.603125 529.478125 
L 294.183125 529.478125 
L 294.183125 22.318125 
L 40.603125 22.318125 
z
" style="fill: #ffffff"/>
   </g>
   <g id="patch_3">
    <path d="M 167.393125 247.539428 
C 187.893228 247.539428 207.55646 239.394651 222.052222 224.898889 
C 236.547984 210.403127 244.692762 190.739895 244.692762 170.239792 
C 244.692762 149.739688 236.547984 130.076456 222.052222 115.580694 
C 207.55646 101.084932 187.893228 92.940155 167.393125 92.940155 
C 146.893022 92.940155 127.22979 101.084932 112.734028 115.580694 
C 98.238266 130.076456 90.093488 149.739688 90.093488 170.239792 
C 90.093488 190.739895 98.238266 210.403127 112.734028 224.898889 
C 127.22979 239.394651 146.893022 247.539428 167.393125 247.539428 
L 167.393125 247.539428 
z
" clip-path="url(#pd253ed4e37)" style="fill: none; stroke: #808080; stroke-linejoin: miter"/>
   </g>
   <g id="patch_4">
    <path d="M 159.307014 144.826377 
C 160.932227 144.826377 162.491094 144.180672 163.640294 143.031473 
C 164.789493 141.882274 165.435197 140.323406 165.435197 138.698193 
C 165.435197 137.07298 164.789493 135.514112 163.640294 134.364913 
C 162.491094 133.215714 160.932227 132.57001 159.307014 132.57001 
C 157.6818 132.57001 156.122933 133.215714 154.973734 134.364913 
C 153.824534 135.514112 153.17883 137.07298 153.17883 138.698193 
C 153.17883 140.323406 153.824534 141.882274 154.973734 143.031473 
C 156.122933 144.180672 157.6818 144.826377 159.307014 144.826377 
z
" clip-path="url(#pd253ed4e37)" style="fill: #ff0000; stroke: #000000; stroke-linejoin: miter"/>
   </g>
   <g id="patch_5">
    <path d="M 204.048005 156.607177 
C 205.673218 156.607177 207.232085 155.961473 208.381285 154.812274 
C 209.530484 153.663075 210.176188 152.104207 210.176188 150.478994 
C 210.176188 148.853781 209.530484 147.294913 208.381285 146.145714 
C 207.232085 144.996515 205.673218 144.350811 204.048005 144.350811 
C 202.422791 144.350811 200.863924 144.996515 199.714725 146.145714 
C 198.565525 147.294913 197.919821 148.853781 197.919821 150.478994 
C 197.919821 152.104207 198.565525 153.663075 199.714725 154.812274 
C 200.863924 155.961473 202.422791 156.607177 204.048005 156.607177 
z
" clip-path="url(#pd253ed4e37)" style="fill: #ff0000; stroke: #000000; stroke-linejoin: miter"/>
   </g>
   <g id="patch_6">
    <path d="M 198.932859 196.047678 
C 200.558073 196.047678 202.11694 195.401974 203.266139 194.252775 
C 204.415339 193.103575 205.061043 191.544708 205.061043 189.919495 
C 205.061043 188.294281 204.415339 186.735414 203.266139 185.586215 
C 202.11694 184.437015 200.558073 183.791311 198.932859 183.791311 
C 197.307646 183.791311 195.748779 184.437015 194.599579 185.586215 
C 193.45038 186.735414 192.804676 188.294281 192.804676 189.919495 
C 192.804676 191.544708 193.45038 193.103575 194.599579 194.252775 
C 195.748779 195.401974 197.307646 196.047678 198.932859 196.047678 
z
" clip-path="url(#pd253ed4e37)" style="fill: #ff0000; stroke: #000000; stroke-linejoin: miter"/>
   </g>
   <g id="patch_7">
    <path d="M 169.863399 173.901604 
C 171.488612 173.901604 173.04748 173.2559 174.196679 172.1067 
C 175.345878 170.957501 175.991582 169.398633 175.991582 167.77342 
C 175.991582 166.148207 175.345878 164.58934 174.196679 163.44014 
C 173.04748 162.290941 171.488612 161.645237 169.863399 161.645237 
C 168.238186 161.645237 166.679318 162.290941 165.530119 163.44014 
C 164.38092 164.58934 163.735216 166.148207 163.735216 167.77342 
C 163.735216 169.398633 164.38092 170.957501 165.530119 172.1067 
C 166.679318 173.2559 168.238186 173.901604 169.863399 173.901604 
z
" clip-path="url(#pd253ed4e37)" style="fill: #ff0000; stroke: #000000; stroke-linejoin: miter"/>
   </g>
   <g id="patch_8">
    <path d="M 185.567873 202.029169 
C 187.193086 202.029169 188.751953 201.383465 189.901153 200.234265 
C 191.050352 199.085066 191.696056 197.526199 191.696056 195.900985 
C 191.696056 194.275772 191.050352 192.716905 189.901153 191.567705 
C 188.751953 190.418506 187.193086 189.772802 185.567873 189.772802 
C 183.942659 189.772802 182.383792 190.418506 181.234593 191.567705 
C 180.085393 192.716905 179.439689 194.275772 179.439689 195.900985 
C 179.439689 197.526199 180.085393 199.085066 181.234593 200.234265 
C 182.383792 201.383465 183.942659 202.029169 185.567873 202.029169 
z
" clip-path="url(#pd253ed4e37)" style="fill: #ff0000; stroke: #000000; stroke-linejoin: miter"/>
   </g>
   <g id="patch_9">
    <path d="M 166.851291 205.604746 
C 168.476504 205.604746 170.035372 204.959042 171.184571 203.809843 
C 172.33377 202.660644 172.979474 201.101776 172.979474 199.476563 
C 172.979474 197.85135 172.33377 196.292482 171.184571 195.143283 
C 170.035372 193.994084 168.476504 193.34838 166.851291 193.34838 
C 165.226078 193.34838 163.66721 193.994084 162.518011 195.143283 
C 161.368812 196.292482 160.723107 197.85135 160.723107 199.476563 
C 160.723107 201.101776 161.368812 202.660644 162.518011 203.809843 
C 163.66721 204.959042 165.226078 205.604746 166.851291 205.604746 
z
" clip-path="url(#pd253ed4e37)" style="fill: #ff0000; stroke: #000000; stroke-linejoin: miter"/>
   </g>
   <g id="patch_10">
    <path d="M 170.852784 226.399459 
C 172.477997 226.399459 174.036865 225.753755 175.186064 224.604556 
C 176.335263 223.455357 176.980967 221.896489 176.980967 220.271276 
C 176.980967 218.646063 176.335263 217.087195 175.186064 215.937996 
C 174.036865 214.788797 172.477997 214.143093 170.852784 214.143093 
C 169.227571 214.143093 167.668703 214.788797 166.519504 215.937996 
C 165.370305 217.087195 164.724601 218.646063 164.724601 220.271276 
C 164.724601 221.896489 165.370305 223.455357 166.519504 224.604556 
C 167.668703 225.753755 169.227571 226.399459 170.852784 226.399459 
z
" clip-path="url(#pd253ed4e37)" style="fill: #ff0000; stroke: #000000; stroke-linejoin: miter"/>
   </g>
   <g id="patch_11">
    <path d="M 149.884271 172.54331 
C 151.509485 172.54331 153.068352 171.897606 154.217551 170.748406 
C 155.366751 169.599207 156.012455 168.04034 156.012455 166.415126 
C 156.012455 164.789913 155.366751 163.231046 154.217551 162.081846 
C 153.068352 160.932647 151.509485 160.286943 149.884271 160.286943 
C 148.259058 160.286943 146.700191 160.932647 145.550991 162.081846 
C 144.401792 163.231046 143.756088 164.789913 143.756088 166.415126 
C 143.756088 168.04034 144.401792 169.599207 145.550991 170.748406 
C 146.700191 171.897606 148.259058 172.54331 149.884271 172.54331 
z
" clip-path="url(#pd253ed4e37)" style="fill: #ffd700; stroke: #000000; stroke-linejoin: miter"/>
   </g>
   <g id="patch_12">
    <path d="M 157.581024 182.986292 
C 159.206237 182.986292 160.765105 182.340588 161.914304 181.191389 
C 163.063503 180.042189 163.709207 178.483322 163.709207 176.858109 
C 163.709207 175.232895 163.063503 173.674028 161.914304 172.524829 
C 160.765105 171.375629 159.206237 170.729925 157.581024 170.729925 
C 155.955811 170.729925 154.396943 171.375629 153.247744 172.524829 
C 152.098545 173.674028 151.452841 175.232895 151.452841 176.858109 
C 151.452841 178.483322 152.098545 180.042189 153.247744 181.191389 
C 154.396943 182.340588 155.955811 182.986292 157.581024 182.986292 
z
" clip-path="url(#pd253ed4e37)" style="fill: #ffd700; stroke: #000000; stroke-linejoin: miter"/>
   </g>
   <g id="patch_13">
    <path d="M 151.827428 211.717794 
C 153.452641 211.717794 155.011508 211.07209 156.160708 209.922891 
C 157.309907 208.773692 157.955611 207.214824 157.955611 205.589611 
C 157.955611 203.964398 157.309907 202.40553 156.160708 201.256331 
C 155.011508 200.107132 153.452641 199.461427 151.827428 199.461427 
C 150.202214 199.461427 148.643347 200.107132 147.494148 201.256331 
C 146.344948 202.40553 145.699244 203.964398 145.699244 205.589611 
C 145.699244 207.214824 146.344948 208.773692 147.494148 209.922891 
C 148.643347 211.07209 150.202214 211.717794 151.827428 211.717794 
z
" clip-path="url(#pd253ed4e37)" style="fill: #ffd700; stroke: #000000; stroke-linejoin: miter"/>
   </g>
   <g id="patch_14">
    <path d="M 167.531991 191.723547 
C 169.157205 191.723547 170.716072 191.077843 171.865271 189.928644 
C 173.014471 188.779445 173.660175 187.220577 173.660175 185.595364 
C 173.660175 183.970151 173.014471 182.411283 171.865271 181.262084 
C 170.716072 180.112885 169.157205 179.467181 167.531991 179.467181 
C 165.906778 179.467181 164.347911 180.112885 163.198711 181.262084 
C 162.049512 182.411283 161.403808 183.970151 161.403808 185.595364 
C 161.403808 187.220577 162.049512 188.779445 163.198711 189.928644 
C 164.347911 191.077843 165.906778 191.723547 167.531991 191.723547 
z
" clip-path="url(#pd253ed4e37)" style="fill: #ffd700; stroke: #000000; stroke-linejoin: miter"/>
   </g>
   <g id="patch_15">
    <path d="M 154.173986 196.909731 
C 155.799199 196.909731 157.358067 196.264027 158.507266 195.114828 
C 159.656465 193.965628 160.302169 192.406761 160.302169 190.781548 
C 160.302169 189.156334 159.656465 187.597467 158.507266 186.448268 
C 157.358067 185.299068 155.799199 184.653364 154.173986 184.653364 
C 152.548773 184.653364 150.989905 185.299068 149.840706 186.448268 
C 148.691507 187.597467 148.045803 189.156334 148.045803 190.781548 
C 148.045803 192.406761 148.691507 193.965628 149.840706 195.114828 
C 150.989905 196.264027 152.548773 196.909731 154.173986 196.909731 
z
" clip-path="url(#pd253ed4e37)" style="fill: #ffd700; stroke: #000000; stroke-linejoin: miter"/>
   </g>
   <g id="patch_16">
    <path d="M 186.05494 217.680744 
C 187.680153 217.680744 189.239021 217.03504 190.38822 215.885841 
C 191.537419 214.736642 192.183123 213.177774 192.183123 211.552561 
C 192.183123 209.927348 191.537419 208.36848 190.38822 207.219281 
C 189.239021 206.070082 187.680153 205.424378 186.05494 205.424378 
C 184.429727 205.424378 182.870859 206.070082 181.72166 207.219281 
C 180.572461 208.36848 179.926757 209.927348 179.926757 211.552561 
C 179.926757 213.177774 180.572461 214.736642 181.72166 215.885841 
C 182.870859 217.03504 184.429727 217.680744 186.05494 217.680744 
z
" clip-path="url(#pd253ed4e37)" style="fill: #ffd700; stroke: #000000; stroke-linejoin: miter"/>
   </g>
   <g id="patch_17">
    <path d="M 173.501561 252.579787 
C 175.126774 252.579787 176.685642 251.934083 177.834841 250.784884 
C 178.98404 249.635685 179.629744 248.076817 179.629744 246.451604 
C 179.629744 244.826391 178.98404 243.267523 177.834841 242.118324 
C 176.685642 240.969125 175.126774 240.323421 173.501561 240.323421 
C 171.876348 240.323421 170.31748 240.969125 169.168281 242.118324 
C 168.019082 243.267523 167.373378 244.826391 167.373378 246.451604 
C 167.373378 248.076817 168.019082 249.635685 169.168281 250.784884 
C 170.31748 251.934083 171.876348 252.579787 173.501561 252.579787 
z
" clip-path="url(#pd253ed4e37)" style="fill: #ffd700; stroke: #000000; stroke-linejoin: miter"/>
   </g>
   <g id="patch_18">
    <path d="M 167.393125 172.997474 
C 168.124471 172.997474 168.825961 172.706907 169.343101 172.189768 
C 169.860241 171.672628 170.150807 170.971138 170.150807 170.239792 
C 170.150807 169.508446 169.860241 168.806955 169.343101 168.289816 
C 168.825961 167.772676 168.124471 167.482109 167.393125 167.482109 
C 166.661779 167.482109 165.960289 167.772676 165.443149 168.289816 
C 164.926009 168.806955 164.635443 169.508446 164.635443 170.239792 
C 164.635443 170.971138 164.926009 171.672628 165.443149 172.189768 
C 165.960289 172.706907 166.661779 172.997474 167.393125 172.997474 
z
" clip-path="url(#pd253ed4e37)" style="opacity: 0.85; stroke: #000000; stroke-linejoin: miter"/>
   </g>
   <g id="matplotlib.axis_1">
    <g id="xtick_1">
     <g id="line2d_1">
      <path d="M 40.603125 529.478125 
L 40.603125 22.318125 
" clip-path="url(#pd253ed4e37)" style="fill: none; stroke: #b0b0b0; stroke-opacity: 0.25; stroke-width: 0.8; stroke-linecap: square"/>
     </g>
     <g id="line2d_2">
      <defs>
       <path id="m6c04432957" d="M 0 0 
L 0 3.5 
" style="stroke: #000000; stroke-width: 0.8"/>
      </defs>
      <g>
       <use xlink:href="#m6c04432957" x="40.603125" y="529.478125" style="stroke: #000000; stroke-width: 0.8"/>
      </g>
     </g>
     <g id="text_1">
      <!-- −3 -->
      <g transform="translate(33.232031 544.076562) scale(0.1 -0.1)">
       <defs>
        <path id="DejaVuSans-2212" d="M 678 2272 
L 4684 2272 
L 4684 1741 
L 678 1741 
L 678 2272 
z
" transform="scale(0.015625)"/>
        <path id="DejaVuSans-33" d="M 2597 2516 
Q 3050 2419 3304 2112 
Q 3559 1806 3559 1356 
Q 3559 666 3084 287 
Q 2609 -91 1734 -91 
Q 1441 -91 1130 -33 
Q 819 25 488 141 
L 488 750 
Q 750 597 1062 519 
Q 1375 441 1716 441 
Q 2309 441 2620 675 
Q 2931 909 2931 1356 
Q 2931 1769 2642 2001 
Q 2353 2234 1838 2234 
L 1294 2234 
L 1294 2753 
L 1863 2753 
Q 2328 2753 2575 2939 
Q 2822 3125 2822 3475 
Q 2822 3834 2567 4026 
Q 2313 4219 1838 4219 
Q 1578 4219 1281 4162 
Q 984 4106 628 3988 
L 628 4550 
Q 988 4650 1302 4700 
Q 1616 4750 1894 4750 
Q 2613 4750 3031 4423 
Q 3450 4097 3450 3541 
Q 3450 3153 3228 2886 
Q 3006 2619 2597 2516 
z
" transform="scale(0.015625)"/>
       </defs>
       <use xlink:href="#DejaVuSans-2212"/>
       <use xlink:href="#DejaVuSans-33" transform="translate(83.789062 0)"/>
      </g>
     </g>
    </g>
    <g id="xtick_2">
     <g id="line2d_3">
      <path d="M 82.866458 529.478125 
L 82.866458 22.318125 
" clip-path="url(#pd253ed4e37)" style="fill: none; stroke: #b0b0b0; stroke-opacity: 0.25; stroke-width: 0.8; stroke-linecap: square"/>
     </g>
     <g id="line2d_4">
      <g>
       <use xlink:href="#m6c04432957" x="82.866458" y="529.478125" style="stroke: #000000; stroke-width: 0.8"/>
      </g>
     </g>
     <g id="text_2">
      <!-- −2 -->
      <g transform="translate(75.495365 544.076562) scale(0.1 -0.1)">
       <defs>
        <path id="DejaVuSans-32" d="M 1228 531 
L 3431 531 
L 3431 0 
L 469 0 
L 469 531 
Q 828 903 1448 1529 
Q 2069 2156 2228 2338 
Q 2531 2678 2651 2914 
Q 2772 3150 2772 3378 
Q 2772 3750 2511 3984 
Q 2250 4219 1831 4219 
Q 1534 4219 1204 4116 
Q 875 4013 500 3803 
L 500 4441 
Q 881 4594 1212 4672 
Q 1544 4750 1819 4750 
Q 2544 4750 2975 4387 
Q 3406 4025 3406 3419 
Q 3406 3131 3298 2873 
Q 3191 2616 2906 2266 
Q 2828 2175 2409 1742 
Q 1991 1309 1228 531 
z
" transform="scale(0.015625)"/>
       </defs>
       <use xlink:href="#DejaVuSans-2212"/>
       <use xlink:href="#DejaVuSans-32" transform="translate(83.789062 0)"/>
      </g>
     </g>
    </g>
    <g id="xtick_3">
     <g id="line2d_5">
      <path d="M 125.129792 529.478125 
L 125.129792 22.318125 
" clip-path="url(#pd253ed4e37)" style="fill: none; stroke: #b0b0b0; stroke-opacity: 0.25; stroke-width: 0.8; stroke-linecap: square"/>
     </g>
     <g id="line2d_6">
      <g>
       <use xlink:href="#m6c04432957" x="125.129792" y="529.478125" style="stroke: #000000; stroke-width: 0.8"/>
      </g>
     </g>
     <g id="text_3">
      <!-- −1 -->
      <g transform="translate(117.758698 544.076562) scale(0.1 -0.1)">
       <defs>
        <path id="DejaVuSans-31" d="M 794 531 
L 1825 531 
L 1825 4091 
L 703 3866 
L 703 4441 
L 1819 4666 
L 2450 4666 
L 2450 531 
L 3481 531 
L 3481 0 
L 794 0 
L 794 531 
z
" transform="scale(0.015625)"/>
       </defs>
       <use xlink:href="#DejaVuSans-2212"/>
       <use xlink:href="#DejaVuSans-31" transform="translate(83.789062 0)"/>
      </g>
     </g>
    </g>
    <g id="xtick_4">
     <g id="line2d_7">
      <path d="M 167.393125 529.478125 
L 167.393125 22.318125 
" clip-path="url(#pd253ed4e37)" style="fill: none; stroke: #b0b0b0; stroke-opacity: 0.25; stroke-width: 0.8; stroke-linecap: square"/>
     </g>
     <g id="line2d_8">
      <g>
       <use xlink:href="#m6c04432957" x="167.393125" y="529.478125" style="stroke: #000000; stroke-width: 0.8"/>
      </g>
     </g>
     <g id="text_4">
      <!-- 0 -->
      <g transform="translate(164.211875 544.076562) scale(0.1 -0.1)">
       <defs>
        <path id="DejaVuSans-30" d="M 2034 4250 
Q 1547 4250 1301 3770 
Q 1056 3291 1056 2328 
Q 1056 1369 1301 889 
Q 1547 409 2034 409 
Q 2525 409 2770 889 
Q 3016 1369 3016 2328 
Q 3016 3291 2770 3770 
Q 2525 4250 2034 4250 
z
M 2034 4750 
Q 2819 4750 3233 4129 
Q 3647 3509 3647 2328 
Q 3647 1150 3233 529 
Q 2819 -91 2034 -91 
Q 1250 -91 836 529 
Q 422 1150 422 2328 
Q 422 3509 836 4129 
Q 1250 4750 2034 4750 
z
" transform="scale(0.015625)"/>
       </defs>
       <use xlink:href="#DejaVuSans-30"/>
      </g>
     </g>
    </g>
    <g id="xtick_5">
     <g id="line2d_9">
      <path d="M 209.656458 529.478125 
L 209.656458 22.318125 
" clip-path="url(#pd253ed4e37)" style="fill: none; stroke: #b0b0b0; stroke-opacity: 0.25; stroke-width: 0.8; stroke-linecap: square"/>
     </g>
     <g id="line2d_10">
      <g>
       <use xlink:href="#m6c04432957" x="209.656458" y="529.478125" style="stroke: #000000; stroke-width: 0.8"/>
      </g>
     </g>
     <g id="text_5">
      <!-- 1 -->
      <g transform="translate(206.475208 544.076562) scale(0.1 -0.1)">
       <use xlink:href="#DejaVuSans-31"/>
      </g>
     </g>
    </g>
    <g id="xtick_6">
     <g id="line2d_11">
      <path d="M 251.919792 529.478125 
L 251.919792 22.318125 
" clip-path="url(#pd253ed4e37)" style="fill: none; stroke: #b0b0b0; stroke-opacity: 0.25; stroke-width: 0.8; stroke-linecap: square"/>
     </g>
     <g id="line2d_12">
      <g>
       <use xlink:href="#m6c04432957" x="251.919792" y="529.478125" style="stroke: #000000; stroke-width: 0.8"/>
      </g>
     </g>
     <g id="text_6">
      <!-- 2 -->
      <g transform="translate(248.738542 544.076562) scale(0.1 -0.1)">
       <use xlink:href="#DejaVuSans-32"/>
      </g>
     </g>
    </g>
    <g id="xtick_7">
     <g id="line2d_13">
      <path d="M 294.183125 529.478125 
L 294.183125 22.318125 
" clip-path="url(#pd253ed4e37)" style="fill: none; stroke: #b0b0b0; stroke-opacity: 0.25; stroke-width: 0.8; stroke-linecap: square"/>
     </g>
     <g id="line2d_14">
      <g>
       <use xlink:href="#m6c04432957" x="294.183125" y="529.478125" style="stroke: #000000; stroke-width: 0.8"/>
      </g>
     </g>
     <g id="text_7">
      <!-- 3 -->
      <g transform="translate(291.001875 544.076562) scale(0.1 -0.1)">
       <use xlink:href="#DejaVuSans-33"/>
      </g>
     </g>
    </g>
    <g id="text_8">
     <!-- X -->
     <g transform="translate(163.968125 557.754687) scale(0.1 -0.1)">
      <defs>
       <path id="DejaVuSans-58" d="M 403 4666 
L 1081 4666 
L 2241 2931 
L 3406 4666 
L 4084 4666 
L 2584 2425 
L 4184 0 
L 3506 0 
L 2194 1984 
L 872 0 
L 191 0 
L 1856 2491 
L 403 4666 
z
" transform="scale(0.015625)"/>
      </defs>
      <use xlink:href="#DejaVuSans-58"/>
     </g>
    </g>
   </g>
   <g id="matplotlib.axis_2">
    <g id="ytick_1">
     <g id="line2d_15">
      <path d="M 40.603125 529.478125 
L 294.183125 529.478125 
" clip-path="url(#pd253ed4e37)" style="fill: none; stroke: #b0b0b0; stroke-opacity: 0.25; stroke-width: 0.8; stroke-linecap: square"/>
     </g>
     <g id="line2d_16">
      <defs>
       <path id="maa5a0261f4" d="M 0 0 
L -3.5 0 
" style="stroke: #000000; stroke-width: 0.8"/>
      </defs>
      <g>
       <use xlink:href="#maa5a0261f4" x="40.603125" y="529.478125" style="stroke: #000000; stroke-width: 0.8"/>
      </g>
     </g>
     <g id="text_9">
      <!-- 30 -->
      <g transform="translate(20.878125 533.277344) scale(0.1 -0.1)">
       <use xlink:href="#DejaVuSans-33"/>
       <use xlink:href="#DejaVuSans-30" transform="translate(63.623047 0)"/>
      </g>
     </g>
    </g>
    <g id="ytick_2">
     <g id="line2d_17">
      <path d="M 40.603125 444.951458 
L 294.183125 444.951458 
" clip-path="url(#pd253ed4e37)" style="fill: none; stroke: #b0b0b0; stroke-opacity: 0.25; stroke-width: 0.8; stroke-linecap: square"/>
     </g>
     <g id="line2d_18">
      <g>
       <use xlink:href="#maa5a0261f4" x="40.603125" y="444.951458" style="stroke: #000000; stroke-width: 0.8"/>
      </g>
     </g>
     <g id="text_10">
      <!-- 32 -->
      <g transform="translate(20.878125 448.750677) scale(0.1 -0.1)">
       <use xlink:href="#DejaVuSans-33"/>
       <use xlink:href="#DejaVuSans-32" transform="translate(63.623047 0)"/>
      </g>
     </g>
    </g>
    <g id="ytick_3">
     <g id="line2d_19">
      <path d="M 40.603125 360.424792 
L 294.183125 360.424792 
" clip-path="url(#pd253ed4e37)" style="fill: none; stroke: #b0b0b0; stroke-opacity: 0.25; stroke-width: 0.8; stroke-linecap: square"/>
     </g>
     <g id="line2d_20">
      <g>
       <use xlink:href="#maa5a0261f4" x="40.603125" y="360.424792" style="stroke: #000000; stroke-width: 0.8"/>
      </g>
     </g>
     <g id="text_11">
      <!-- 34 -->
      <g transform="translate(20.878125 364.22401) scale(0.1 -0.1)">
       <defs>
        <path id="DejaVuSans-34" d="M 2419 4116 
L 825 1625 
L 2419 1625 
L 2419 4116 
z
M 2253 4666 
L 3047 4666 
L 3047 1625 
L 3713 1625 
L 3713 1100 
L 3047 1100 
L 3047 0 
L 2419 0 
L 2419 1100 
L 313 1100 
L 313 1709 
L 2253 4666 
z
" transform="scale(0.015625)"/>
       </defs>
       <use xlink:href="#DejaVuSans-33"/>
       <use xlink:href="#DejaVuSans-34" transform="translate(63.623047 0)"/>
      </g>
     </g>
    </g>
    <g id="ytick_4">
     <g id="line2d_21">
      <path d="M 40.603125 275.898125 
L 294.183125 275.898125 
" clip-path="url(#pd253ed4e37)" style="fill: none; stroke: #b0b0b0; stroke-opacity: 0.25; stroke-width: 0.8; stroke-linecap: square"/>
     </g>
     <g id="line2d_22">
      <g>
       <use xlink:href="#maa5a0261f4" x="40.603125" y="275.898125" style="stroke: #000000; stroke-width: 0.8"/>
      </g>
     </g>
     <g id="text_12">
      <!-- 36 -->
      <g transform="translate(20.878125 279.697344) scale(0.1 -0.1)">
       <defs>
        <path id="DejaVuSans-36" d="M 2113 2584 
Q 1688 2584 1439 2293 
Q 1191 2003 1191 1497 
Q 1191 994 1439 701 
Q 1688 409 2113 409 
Q 2538 409 2786 701 
Q 3034 994 3034 1497 
Q 3034 2003 2786 2293 
Q 2538 2584 2113 2584 
z
M 3366 4563 
L 3366 3988 
Q 3128 4100 2886 4159 
Q 2644 4219 2406 4219 
Q 1781 4219 1451 3797 
Q 1122 3375 1075 2522 
Q 1259 2794 1537 2939 
Q 1816 3084 2150 3084 
Q 2853 3084 3261 2657 
Q 3669 2231 3669 1497 
Q 3669 778 3244 343 
Q 2819 -91 2113 -91 
Q 1303 -91 875 529 
Q 447 1150 447 2328 
Q 447 3434 972 4092 
Q 1497 4750 2381 4750 
Q 2619 4750 2861 4703 
Q 3103 4656 3366 4563 
z
" transform="scale(0.015625)"/>
       </defs>
       <use xlink:href="#DejaVuSans-33"/>
       <use xlink:href="#DejaVuSans-36" transform="translate(63.623047 0)"/>
      </g>
     </g>
    </g>
    <g id="ytick_5">
     <g id="line2d_23">
      <path d="M 40.603125 191.371458 
L 294.183125 191.371458 
" clip-path="url(#pd253ed4e37)" style="fill: none; stroke: #b0b0b0; stroke-opacity: 0.25; stroke-width: 0.8; stroke-linecap: square"/>
     </g>
     <g id="line2d_24">
      <g>
       <use xlink:href="#maa5a0261f4" x="40.603125" y="191.371458" style="stroke: #000000; stroke-width: 0.8"/>
      </g>
     </g>
     <g id="text_13">
      <!-- 38 -->
      <g transform="translate(20.878125 195.170677) scale(0.1 -0.1)">
       <defs>
        <path id="DejaVuSans-38" d="M 2034 2216 
Q 1584 2216 1326 1975 
Q 1069 1734 1069 1313 
Q 1069 891 1326 650 
Q 1584 409 2034 409 
Q 2484 409 2743 651 
Q 3003 894 3003 1313 
Q 3003 1734 2745 1975 
Q 2488 2216 2034 2216 
z
M 1403 2484 
Q 997 2584 770 2862 
Q 544 3141 544 3541 
Q 544 4100 942 4425 
Q 1341 4750 2034 4750 
Q 2731 4750 3128 4425 
Q 3525 4100 3525 3541 
Q 3525 3141 3298 2862 
Q 3072 2584 2669 2484 
Q 3125 2378 3379 2068 
Q 3634 1759 3634 1313 
Q 3634 634 3220 271 
Q 2806 -91 2034 -91 
Q 1263 -91 848 271 
Q 434 634 434 1313 
Q 434 1759 690 2068 
Q 947 2378 1403 2484 
z
M 1172 3481 
Q 1172 3119 1398 2916 
Q 1625 2713 2034 2713 
Q 2441 2713 2670 2916 
Q 2900 3119 2900 3481 
Q 2900 3844 2670 4047 
Q 2441 4250 2034 4250 
Q 1625 4250 1398 4047 
Q 1172 3844 1172 3481 
z
" transform="scale(0.015625)"/>
       </defs>
       <use xlink:href="#DejaVuSans-33"/>
       <use xlink:href="#DejaVuSans-38" transform="translate(63.623047 0)"/>
      </g>
     </g>
    </g>
    <g id="ytick_6">
     <g id="line2d_25">
      <path d="M 40.603125 106.844792 
L 294.183125 106.844792 
" clip-path="url(#pd253ed4e37)" style="fill: none; stroke: #b0b0b0; stroke-opacity: 0.25; stroke-width: 0.8; stroke-linecap: square"/>
     </g>
     <g id="line2d_26">
      <g>
       <use xlink:href="#maa5a0261f4" x="40.603125" y="106.844792" style="stroke: #000000; stroke-width: 0.8"/>
      </g>
     </g>
     <g id="text_14">
      <!-- 40 -->
      <g transform="translate(20.878125 110.64401) scale(0.1 -0.1)">
       <use xlink:href="#DejaVuSans-34"/>
       <use xlink:href="#DejaVuSans-30" transform="translate(63.623047 0)"/>
      </g>
     </g>
    </g>
    <g id="ytick_7">
     <g id="line2d_27">
      <path d="M 40.603125 22.318125 
L 294.183125 22.318125 
" clip-path="url(#pd253ed4e37)" style="fill: none; stroke: #b0b0b0; stroke-opacity: 0.25; stroke-width: 0.8; stroke-linecap: square"/>
     </g>
     <g id="line2d_28">
      <g>
       <use xlink:href="#maa5a0261f4" x="40.603125" y="22.318125" style="stroke: #000000; stroke-width: 0.8"/>
      </g>
     </g>
     <g id="text_15">
      <!-- 42 -->
      <g transform="translate(20.878125 26.117344) scale(0.1 -0.1)">
       <use xlink:href="#DejaVuSans-34"/>
       <use xlink:href="#DejaVuSans-32" transform="translate(63.623047 0)"/>
      </g>
     </g>
    </g>
    <g id="text_16">
     <!-- Y -->
     <g transform="translate(14.798438 278.952031) rotate(-90) scale(0.1 -0.1)">
      <defs>
       <path id="DejaVuSans-59" d="M -13 4666 
L 666 4666 
L 1959 2747 
L 3244 4666 
L 3922 4666 
L 2272 2222 
L 2272 0 
L 1638 0 
L 1638 2222 
L -13 4666 
z
" transform="scale(0.015625)"/>
      </defs>
      <use xlink:href="#DejaVuSans-59"/>
     </g>
    </g>
   </g>
   <g id="patch_19">
    <path d="M 40.603125 529.478125 
L 40.603125 22.318125 
" style="fill: none; stroke: #000000; stroke-width: 0.8; stroke-linejoin: miter; stroke-linecap: square"/>
   </g>
   <g id="patch_20">
    <path d="M 294.183125 529.478125 
L 294.183125 22.318125 
" style="fill: none; stroke: #000000; stroke-width: 0.8; stroke-linejoin: miter; stroke-linecap: square"/>
   </g>
   <g id="patch_21">
    <path d="M 40.603125 529.478125 
L 294.183125 529.478125 
" style="fill: none; stroke: #000000; stroke-width: 0.8; stroke-linejoin: miter; stroke-linecap: square"/>
   </g>
   <g id="patch_22">
    <path d="M 40.603125 22.318125 
L 294.183125 22.318125 
" style="fill: none; stroke: #000000; stroke-width: 0.8; stroke-linejoin: miter; stroke-linecap: square"/>
   </g>
   <g id="text_17">
    <!-- 1 -->
    <g style="fill: #ffffff" transform="translate(156.523889 140.905693) scale(0.08 -0.08)">
     <defs>
      <path id="DejaVuSans-Bold-31" d="M 750 831 
L 1813 831 
L 1813 3847 
L 722 3622 
L 722 4441 
L 1806 4666 
L 2950 4666 
L 2950 831 
L 4013 831 
L 4013 0 
L 750 0 
L 750 831 
z
" transform="scale(0.015625)"/>
     </defs>
     <use xlink:href="#DejaVuSans-Bold-31"/>
    </g>
   </g>
   <g id="text_18">
    <!-- 2 -->
    <g style="fill: #ffffff" transform="translate(201.26488 152.686494) scale(0.08 -0.08)">
     <defs>
      <path id="DejaVuSans-Bold-32" d="M 1844 884 
L 3897 884 
L 3897 0 
L 506 0 
L 506 884 
L 2209 2388 
Q 2438 2594 2547 2791 
Q 2656 2988 2656 3200 
Q 2656 3528 2436 3728 
Q 2216 3928 1850 3928 
Q 1569 3928 1234 3808 
Q 900 3688 519 3450 
L 519 4475 
Q 925 4609 1322 4679 
Q 1719 4750 2100 4750 
Q 2938 4750 3402 4381 
Q 3866 4013 3866 3353 
Q 3866 2972 3669 2642 
Q 3472 2313 2841 1759 
L 1844 884 
z
" transform="scale(0.015625)"/>
     </defs>
     <use xlink:href="#DejaVuSans-Bold-32"/>
    </g>
   </g>
   <g id="text_19">
    <!-- 3 -->
    <g style="fill: #ffffff" transform="translate(196.149734 192.126995) scale(0.08 -0.08)">
     <defs>
      <path id="DejaVuSans-Bold-33" d="M 2981 2516 
Q 3453 2394 3698 2092 
Q 3944 1791 3944 1325 
Q 3944 631 3412 270 
Q 2881 -91 1863 -91 
Q 1503 -91 1142 -33 
Q 781 25 428 141 
L 428 1069 
Q 766 900 1098 814 
Q 1431 728 1753 728 
Q 2231 728 2486 893 
Q 2741 1059 2741 1369 
Q 2741 1688 2480 1852 
Q 2219 2016 1709 2016 
L 1228 2016 
L 1228 2791 
L 1734 2791 
Q 2188 2791 2409 2933 
Q 2631 3075 2631 3366 
Q 2631 3634 2415 3781 
Q 2200 3928 1806 3928 
Q 1516 3928 1219 3862 
Q 922 3797 628 3669 
L 628 4550 
Q 984 4650 1334 4700 
Q 1684 4750 2022 4750 
Q 2931 4750 3382 4451 
Q 3834 4153 3834 3553 
Q 3834 3144 3618 2883 
Q 3403 2622 2981 2516 
z
" transform="scale(0.015625)"/>
     </defs>
     <use xlink:href="#DejaVuSans-Bold-33"/>
    </g>
   </g>
   <g id="text_20">
    <!-- 4 -->
    <g style="fill: #ffffff" transform="translate(167.080274 169.98092) scale(0.08 -0.08)">
     <defs>
      <path id="DejaVuSans-Bold-34" d="M 2356 3675 
L 1038 1722 
L 2356 1722 
L 2356 3675 
z
M 2156 4666 
L 3494 4666 
L 3494 1722 
L 4159 1722 
L 4159 850 
L 3494 850 
L 3494 0 
L 2356 0 
L 2356 850 
L 288 850 
L 288 1881 
L 2156 4666 
z
" transform="scale(0.015625)"/>
     </defs>
     <use xlink:href="#DejaVuSans-Bold-34"/>
    </g>
   </g>
   <g id="text_21">
    <!-- 5 -->
    <g style="fill: #ffffff" transform="translate(182.784748 198.108485) scale(0.08 -0.08)">
     <defs>
      <path id="DejaVuSans-Bold-35" d="M 678 4666 
L 3669 4666 
L 3669 3781 
L 1638 3781 
L 1638 3059 
Q 1775 3097 1914 3117 
Q 2053 3138 2203 3138 
Q 3056 3138 3531 2711 
Q 4006 2284 4006 1522 
Q 4006 766 3489 337 
Q 2972 -91 2053 -91 
Q 1656 -91 1267 -14 
Q 878 63 494 219 
L 494 1166 
Q 875 947 1217 837 
Q 1559 728 1863 728 
Q 2300 728 2551 942 
Q 2803 1156 2803 1522 
Q 2803 1891 2551 2103 
Q 2300 2316 1863 2316 
Q 1603 2316 1309 2248 
Q 1016 2181 678 2041 
L 678 4666 
z
" transform="scale(0.015625)"/>
     </defs>
     <use xlink:href="#DejaVuSans-Bold-35"/>
    </g>
   </g>
   <g id="text_22">
    <!-- 6 -->
    <g style="fill: #ffffff" transform="translate(164.068166 201.684063) scale(0.08 -0.08)">
     <defs>
      <path id="DejaVuSans-Bold-36" d="M 2316 2303 
Q 2000 2303 1842 2098 
Q 1684 1894 1684 1484 
Q 1684 1075 1842 870 
Q 2000 666 2316 666 
Q 2634 666 2792 870 
Q 2950 1075 2950 1484 
Q 2950 1894 2792 2098 
Q 2634 2303 2316 2303 
z
M 3803 4544 
L 3803 3681 
Q 3506 3822 3243 3889 
Q 2981 3956 2731 3956 
Q 2194 3956 1894 3657 
Q 1594 3359 1544 2772 
Q 1750 2925 1990 3001 
Q 2231 3078 2516 3078 
Q 3231 3078 3670 2659 
Q 4109 2241 4109 1563 
Q 4109 813 3618 361 
Q 3128 -91 2303 -91 
Q 1394 -91 895 523 
Q 397 1138 397 2266 
Q 397 3422 980 4083 
Q 1563 4744 2578 4744 
Q 2900 4744 3203 4694 
Q 3506 4644 3803 4544 
z
" transform="scale(0.015625)"/>
     </defs>
     <use xlink:href="#DejaVuSans-Bold-36"/>
    </g>
   </g>
   <g id="text_23">
    <!-- 7 -->
    <g style="fill: #ffffff" transform="translate(168.069659 222.478776) scale(0.08 -0.08)">
     <defs>
      <path id="DejaVuSans-Bold-37" d="M 428 4666 
L 3944 4666 
L 3944 3988 
L 2125 0 
L 953 0 
L 2675 3781 
L 428 3781 
L 428 4666 
z
" transform="scale(0.015625)"/>
     </defs>
     <use xlink:href="#DejaVuSans-Bold-37"/>
    </g>
   </g>
   <g id="text_24">
    <!-- 1 -->
    <g transform="translate(147.101146 168.622626) scale(0.08 -0.08)">
     <use xlink:href="#DejaVuSans-Bold-31"/>
    </g>
   </g>
   <g id="text_25">
    <!-- 2 -->
    <g transform="translate(154.797899 179.065609) scale(0.08 -0.08)">
     <use xlink:href="#DejaVuSans-Bold-32"/>
    </g>
   </g>
   <g id="text_26">
    <!-- 3 -->
    <g transform="translate(149.044303 207.797111) scale(0.08 -0.08)">
     <use xlink:href="#DejaVuSans-Bold-33"/>
    </g>
   </g>
   <g id="text_27">
    <!-- 4 -->
    <g transform="translate(164.748866 187.802864) scale(0.08 -0.08)">
     <use xlink:href="#DejaVuSans-Bold-34"/>
    </g>
   </g>
   <g id="text_28">
    <!-- 5 -->
    <g transform="translate(151.390861 192.989048) scale(0.08 -0.08)">
     <use xlink:href="#DejaVuSans-Bold-35"/>
    </g>
   </g>
   <g id="text_29">
    <!-- 6 -->
    <g transform="translate(183.271815 213.760061) scale(0.08 -0.08)">
     <use xlink:href="#DejaVuSans-Bold-36"/>
    </g>
   </g>
   <g id="text_30">
    <!-- 7 -->
    <g transform="translate(170.718436 248.659104) scale(0.08 -0.08)">
     <use xlink:href="#DejaVuSans-Bold-37"/>
    </g>
   </g>
   <g id="text_31">
    <!-- End 9 TotalShot 14 / Shooter=team1 -->
    <g transform="translate(57.46 16.318125) scale(0.12 -0.12)">
     <defs>
      <path id="DejaVuSans-45" d="M 628 4666 
L 3578 4666 
L 3578 4134 
L 1259 4134 
L 1259 2753 
L 3481 2753 
L 3481 2222 
L 1259 2222 
L 1259 531 
L 3634 531 
L 3634 0 
L 628 0 
L 628 4666 
z
" transform="scale(0.015625)"/>
      <path id="DejaVuSans-6e" d="M 3513 2113 
L 3513 0 
L 2938 0 
L 2938 2094 
Q 2938 2591 2744 2837 
Q 2550 3084 2163 3084 
Q 1697 3084 1428 2787 
Q 1159 2491 1159 1978 
L 1159 0 
L 581 0 
L 581 3500 
L 1159 3500 
L 1159 2956 
Q 1366 3272 1645 3428 
Q 1925 3584 2291 3584 
Q 2894 3584 3203 3211 
Q 3513 2838 3513 2113 
z
" transform="scale(0.015625)"/>
      <path id="DejaVuSans-64" d="M 2906 2969 
L 2906 4863 
L 3481 4863 
L 3481 0 
L 2906 0 
L 2906 525 
Q 2725 213 2448 61 
Q 2172 -91 1784 -91 
Q 1150 -91 751 415 
Q 353 922 353 1747 
Q 353 2572 751 3078 
Q 1150 3584 1784 3584 
Q 2172 3584 2448 3432 
Q 2725 3281 2906 2969 
z
M 947 1747 
Q 947 1113 1208 752 
Q 1469 391 1925 391 
Q 2381 391 2643 752 
Q 2906 1113 2906 1747 
Q 2906 2381 2643 2742 
Q 2381 3103 1925 3103 
Q 1469 3103 1208 2742 
Q 947 2381 947 1747 
z
" transform="scale(0.015625)"/>
      <path id="DejaVuSans-20" transform="scale(0.015625)"/>
      <path id="DejaVuSans-39" d="M 703 97 
L 703 672 
Q 941 559 1184 500 
Q 1428 441 1663 441 
Q 2288 441 2617 861 
Q 2947 1281 2994 2138 
Q 2813 1869 2534 1725 
Q 2256 1581 1919 1581 
Q 1219 1581 811 2004 
Q 403 2428 403 3163 
Q 403 3881 828 4315 
Q 1253 4750 1959 4750 
Q 2769 4750 3195 4129 
Q 3622 3509 3622 2328 
Q 3622 1225 3098 567 
Q 2575 -91 1691 -91 
Q 1453 -91 1209 -44 
Q 966 3 703 97 
z
M 1959 2075 
Q 2384 2075 2632 2365 
Q 2881 2656 2881 3163 
Q 2881 3666 2632 3958 
Q 2384 4250 1959 4250 
Q 1534 4250 1286 3958 
Q 1038 3666 1038 3163 
Q 1038 2656 1286 2365 
Q 1534 2075 1959 2075 
z
" transform="scale(0.015625)"/>
      <path id="DejaVuSans-54" d="M -19 4666 
L 3928 4666 
L 3928 4134 
L 2272 4134 
L 2272 0 
L 1638 0 
L 1638 4134 
L -19 4134 
L -19 4666 
z
" transform="scale(0.015625)"/>
      <path id="DejaVuSans-6f" d="M 1959 3097 
Q 1497 3097 1228 2736 
Q 959 2375 959 1747 
Q 959 1119 1226 758 
Q 1494 397 1959 397 
Q 2419 397 2687 759 
Q 2956 1122 2956 1747 
Q 2956 2369 2687 2733 
Q 2419 3097 1959 3097 
z
M 1959 3584 
Q 2709 3584 3137 3096 
Q 3566 2609 3566 1747 
Q 3566 888 3137 398 
Q 2709 -91 1959 -91 
Q 1206 -91 779 398 
Q 353 888 353 1747 
Q 353 2609 779 3096 
Q 1206 3584 1959 3584 
z
" transform="scale(0.015625)"/>
      <path id="DejaVuSans-74" d="M 1172 4494 
L 1172 3500 
L 2356 3500 
L 2356 3053 
L 1172 3053 
L 1172 1153 
Q 1172 725 1289 603 
Q 1406 481 1766 481 
L 2356 481 
L 2356 0 
L 1766 0 
Q 1100 0 847 248 
Q 594 497 594 1153 
L 594 3053 
L 172 3053 
L 172 3500 
L 594 3500 
L 594 4494 
L 1172 4494 
z
" transform="scale(0.015625)"/>
      <path id="DejaVuSans-61" d="M 2194 1759 
Q 1497 1759 1228 1600 
Q 959 1441 959 1056 
Q 959 750 1161 570 
Q 1363 391 1709 391 
Q 2188 391 2477 730 
Q 2766 1069 2766 1631 
L 2766 1759 
L 2194 1759 
z
M 3341 1997 
L 3341 0 
L 2766 0 
L 2766 531 
Q 2569 213 2275 61 
Q 1981 -91 1556 -91 
Q 1019 -91 701 211 
Q 384 513 384 1019 
Q 384 1609 779 1909 
Q 1175 2209 1959 2209 
L 2766 2209 
L 2766 2266 
Q 2766 2663 2505 2880 
Q 2244 3097 1772 3097 
Q 1472 3097 1187 3025 
Q 903 2953 641 2809 
L 641 3341 
Q 956 3463 1253 3523 
Q 1550 3584 1831 3584 
Q 2591 3584 2966 3190 
Q 3341 2797 3341 1997 
z
" transform="scale(0.015625)"/>
      <path id="DejaVuSans-6c" d="M 603 4863 
L 1178 4863 
L 1178 0 
L 603 0 
L 603 4863 
z
" transform="scale(0.015625)"/>
      <path id="DejaVuSans-53" d="M 3425 4513 
L 3425 3897 
Q 3066 4069 2747 4153 
Q 2428 4238 2131 4238 
Q 1616 4238 1336 4038 
Q 1056 3838 1056 3469 
Q 1056 3159 1242 3001 
Q 1428 2844 1947 2747 
L 2328 2669 
Q 3034 2534 3370 2195 
Q 3706 1856 3706 1288 
Q 3706 609 3251 259 
Q 2797 -91 1919 -91 
Q 1588 -91 1214 -16 
Q 841 59 441 206 
L 441 856 
Q 825 641 1194 531 
Q 1563 422 1919 422 
Q 2459 422 2753 634 
Q 3047 847 3047 1241 
Q 3047 1584 2836 1778 
Q 2625 1972 2144 2069 
L 1759 2144 
Q 1053 2284 737 2584 
Q 422 2884 422 3419 
Q 422 4038 858 4394 
Q 1294 4750 2059 4750 
Q 2388 4750 2728 4690 
Q 3069 4631 3425 4513 
z
" transform="scale(0.015625)"/>
      <path id="DejaVuSans-68" d="M 3513 2113 
L 3513 0 
L 2938 0 
L 2938 2094 
Q 2938 2591 2744 2837 
Q 2550 3084 2163 3084 
Q 1697 3084 1428 2787 
Q 1159 2491 1159 1978 
L 1159 0 
L 581 0 
L 581 4863 
L 1159 4863 
L 1159 2956 
Q 1366 3272 1645 3428 
Q 1925 3584 2291 3584 
Q 2894 3584 3203 3211 
Q 3513 2838 3513 2113 
z
" transform="scale(0.015625)"/>
      <path id="DejaVuSans-2f" d="M 1625 4666 
L 2156 4666 
L 531 -594 
L 0 -594 
L 1625 4666 
z
" transform="scale(0.015625)"/>
      <path id="DejaVuSans-65" d="M 3597 1894 
L 3597 1613 
L 953 1613 
Q 991 1019 1311 708 
Q 1631 397 2203 397 
Q 2534 397 2845 478 
Q 3156 559 3463 722 
L 3463 178 
Q 3153 47 2828 -22 
Q 2503 -91 2169 -91 
Q 1331 -91 842 396 
Q 353 884 353 1716 
Q 353 2575 817 3079 
Q 1281 3584 2069 3584 
Q 2775 3584 3186 3129 
Q 3597 2675 3597 1894 
z
M 3022 2063 
Q 3016 2534 2758 2815 
Q 2500 3097 2075 3097 
Q 1594 3097 1305 2825 
Q 1016 2553 972 2059 
L 3022 2063 
z
" transform="scale(0.015625)"/>
      <path id="DejaVuSans-72" d="M 2631 2963 
Q 2534 3019 2420 3045 
Q 2306 3072 2169 3072 
Q 1681 3072 1420 2755 
Q 1159 2438 1159 1844 
L 1159 0 
L 581 0 
L 581 3500 
L 1159 3500 
L 1159 2956 
Q 1341 3275 1631 3429 
Q 1922 3584 2338 3584 
Q 2397 3584 2469 3576 
Q 2541 3569 2628 3553 
L 2631 2963 
z
" transform="scale(0.015625)"/>
      <path id="DejaVuSans-3d" d="M 678 2906 
L 4684 2906 
L 4684 2381 
L 678 2381 
L 678 2906 
z
M 678 1631 
L 4684 1631 
L 4684 1100 
L 678 1100 
L 678 1631 
z
" transform="scale(0.015625)"/>
      <path id="DejaVuSans-6d" d="M 3328 2828 
Q 3544 3216 3844 3400 
Q 4144 3584 4550 3584 
Q 5097 3584 5394 3201 
Q 5691 2819 5691 2113 
L 5691 0 
L 5113 0 
L 5113 2094 
Q 5113 2597 4934 2840 
Q 4756 3084 4391 3084 
Q 3944 3084 3684 2787 
Q 3425 2491 3425 1978 
L 3425 0 
L 2847 0 
L 2847 2094 
Q 2847 2600 2669 2842 
Q 2491 3084 2119 3084 
Q 1678 3084 1418 2786 
Q 1159 2488 1159 1978 
L 1159 0 
L 581 0 
L 581 3500 
L 1159 3500 
L 1159 2956 
Q 1356 3278 1631 3431 
Q 1906 3584 2284 3584 
Q 2666 3584 2933 3390 
Q 3200 3197 3328 2828 
z
" transform="scale(0.015625)"/>
     </defs>
     <use xlink:href="#DejaVuSans-45"/>
     <use xlink:href="#DejaVuSans-6e" transform="translate(63.183594 0)"/>
     <use xlink:href="#DejaVuSans-64" transform="translate(126.5625 0)"/>
     <use xlink:href="#DejaVuSans-20" transform="translate(190.039062 0)"/>
     <use xlink:href="#DejaVuSans-39" transform="translate(221.826172 0)"/>
     <use xlink:href="#DejaVuSans-20" transform="translate(285.449219 0)"/>
     <use xlink:href="#DejaVuSans-54" transform="translate(317.236328 0)"/>
     <use xlink:href="#DejaVuSans-6f" transform="translate(361.320312 0)"/>
     <use xlink:href="#DejaVuSans-74" transform="translate(422.501953 0)"/>
     <use xlink:href="#DejaVuSans-61" transform="translate(461.710938 0)"/>
     <use xlink:href="#DejaVuSans-6c" transform="translate(522.990234 0)"/>
     <use xlink:href="#DejaVuSans-53" transform="translate(550.773438 0)"/>
     <use xlink:href="#DejaVuSans-68" transform="translate(614.25 0)"/>
     <use xlink:href="#DejaVuSans-6f" transform="translate(677.628906 0)"/>
     <use xlink:href="#DejaVuSans-74" transform="translate(738.810547 0)"/>
     <use xlink:href="#DejaVuSans-20" transform="translate(778.019531 0)"/>
     <use xlink:href="#DejaVuSans-31" transform="translate(809.806641 0)"/>
     <use xlink:href="#DejaVuSans-34" transform="translate(873.429688 0)"/>
     <use xlink:href="#DejaVuSans-20" transform="translate(937.052734 0)"/>
     <use xlink:href="#DejaVuSans-2f" transform="translate(968.839844 0)"/>
     <use xlink:href="#DejaVuSans-20" transform="translate(1002.53125 0)"/>
     <use xlink:href="#DejaVuSans-53" transform="translate(1034.318359 0)"/>
     <use xlink:href="#DejaVuSans-68" transform="translate(1097.794922 0)"/>
     <use xlink:href="#DejaVuSans-6f" transform="translate(1161.173828 0)"/>
     <use xlink:href="#DejaVuSans-6f" transform="translate(1222.355469 0)"/>
     <use xlink:href="#DejaVuSans-74" transform="translate(1283.537109 0)"/>
     <use xlink:href="#DejaVuSans-65" transform="translate(1322.746094 0)"/>
     <use xlink:href="#DejaVuSans-72" transform="translate(1384.269531 0)"/>
     <use xlink:href="#DejaVuSans-3d" transform="translate(1425.382812 0)"/>
     <use xlink:href="#DejaVuSans-74" transform="translate(1509.171875 0)"/>
     <use xlink:href="#DejaVuSans-65" transform="translate(1548.380859 0)"/>
     <use xlink:href="#DejaVuSans-61" transform="translate(1609.904297 0)"/>
     <use xlink:href="#DejaVuSans-6d" transform="translate(1671.183594 0)"/>
     <use xlink:href="#DejaVuSans-31" transform="translate(1768.595703 0)"/>
    </g>
   </g>
   <g id="legend_1">
    <g id="patch_23">
     <path d="M 301.254725 84.030625 
L 365.559413 84.030625 
Q 367.559413 84.030625 367.559413 82.030625 
L 367.559413 24.318125 
Q 367.559413 22.318125 365.559413 22.318125 
L 301.254725 22.318125 
Q 299.254725 22.318125 299.254725 24.318125 
L 299.254725 82.030625 
Q 299.254725 84.030625 301.254725 84.030625 
z
" style="fill: #ffffff; opacity: 0.8; stroke: #cccccc; stroke-linejoin: miter"/>
    </g>
    <g id="patch_24">
     <path d="M 303.254725 33.916562 
L 323.254725 33.916562 
L 323.254725 26.916562 
L 303.254725 26.916562 
z
" style="fill: #ff0000; stroke: #000000; stroke-linejoin: miter"/>
    </g>
    <g id="text_32">
     <!-- team0 -->
     <g transform="translate(331.254725 33.916562) scale(0.1 -0.1)">
      <use xlink:href="#DejaVuSans-74"/>
      <use xlink:href="#DejaVuSans-65" transform="translate(39.208984 0)"/>
      <use xlink:href="#DejaVuSans-61" transform="translate(100.732422 0)"/>
      <use xlink:href="#DejaVuSans-6d" transform="translate(162.011719 0)"/>
      <use xlink:href="#DejaVuSans-30" transform="translate(259.423828 0)"/>
     </g>
    </g>
    <g id="patch_25">
     <path d="M 303.254725 48.594687 
L 323.254725 48.594687 
L 323.254725 41.594687 
L 303.254725 41.594687 
z
" style="fill: #ffd700; stroke: #000000; stroke-linejoin: miter"/>
    </g>
    <g id="text_33">
     <!-- team1 -->
     <g transform="translate(331.254725 48.594687) scale(0.1 -0.1)">
      <use xlink:href="#DejaVuSans-74"/>
      <use xlink:href="#DejaVuSans-65" transform="translate(39.208984 0)"/>
      <use xlink:href="#DejaVuSans-61" transform="translate(100.732422 0)"/>
      <use xlink:href="#DejaVuSans-6d" transform="translate(162.011719 0)"/>
      <use xlink:href="#DejaVuSans-31" transform="translate(259.423828 0)"/>
     </g>
    </g>
    <g id="line2d_29">
     <defs>
      <path id="mbe423e62d5" d="M 0 5 
C 1.326016 5 2.597899 4.473168 3.535534 3.535534 
C 4.473168 2.597899 5 1.326016 5 0 
C 5 -1.326016 4.473168 -2.597899 3.535534 -3.535534 
C 2.597899 -4.473168 1.326016 -5 0 -5 
C -1.326016 -5 -2.597899 -4.473168 -3.535534 -3.535534 
C -4.473168 -2.597899 -5 -1.326016 -5 0 
C -5 1.326016 -4.473168 2.597899 -3.535534 3.535534 
C -2.597899 4.473168 -1.326016 5 0 5 
z
" style="stroke: #808080"/>
     </defs>
     <g>
      <use xlink:href="#mbe423e62d5" x="313.254725" y="59.772812" style="fill-opacity: 0; stroke: #808080"/>
     </g>
    </g>
    <g id="text_34">
     <!-- house -->
     <g transform="translate(331.254725 63.272812) scale(0.1 -0.1)">
      <defs>
       <path id="DejaVuSans-75" d="M 544 1381 
L 544 3500 
L 1119 3500 
L 1119 1403 
Q 1119 906 1312 657 
Q 1506 409 1894 409 
Q 2359 409 2629 706 
Q 2900 1003 2900 1516 
L 2900 3500 
L 3475 3500 
L 3475 0 
L 2900 0 
L 2900 538 
Q 2691 219 2414 64 
Q 2138 -91 1772 -91 
Q 1169 -91 856 284 
Q 544 659 544 1381 
z
M 1991 3584 
L 1991 3584 
z
" transform="scale(0.015625)"/>
       <path id="DejaVuSans-73" d="M 2834 3397 
L 2834 2853 
Q 2591 2978 2328 3040 
Q 2066 3103 1784 3103 
Q 1356 3103 1142 2972 
Q 928 2841 928 2578 
Q 928 2378 1081 2264 
Q 1234 2150 1697 2047 
L 1894 2003 
Q 2506 1872 2764 1633 
Q 3022 1394 3022 966 
Q 3022 478 2636 193 
Q 2250 -91 1575 -91 
Q 1294 -91 989 -36 
Q 684 19 347 128 
L 347 722 
Q 666 556 975 473 
Q 1284 391 1588 391 
Q 1994 391 2212 530 
Q 2431 669 2431 922 
Q 2431 1156 2273 1281 
Q 2116 1406 1581 1522 
L 1381 1569 
Q 847 1681 609 1914 
Q 372 2147 372 2553 
Q 372 3047 722 3315 
Q 1072 3584 1716 3584 
Q 2034 3584 2315 3537 
Q 2597 3491 2834 3397 
z
" transform="scale(0.015625)"/>
      </defs>
      <use xlink:href="#DejaVuSans-68"/>
      <use xlink:href="#DejaVuSans-6f" transform="translate(63.378906 0)"/>
      <use xlink:href="#DejaVuSans-75" transform="translate(124.560547 0)"/>
      <use xlink:href="#DejaVuSans-73" transform="translate(187.939453 0)"/>
      <use xlink:href="#DejaVuSans-65" transform="translate(240.039062 0)"/>
     </g>
    </g>
    <g id="line2d_30">
     <defs>
      <path id="m2f82b77ad6" d="M 0 2.5 
C 0.663008 2.5 1.29895 2.236584 1.767767 1.767767 
C 2.236584 1.29895 2.5 0.663008 2.5 0 
C 2.5 -0.663008 2.236584 -1.29895 1.767767 -1.767767 
C 1.29895 -2.236584 0.663008 -2.5 0 -2.5 
C -0.663008 -2.5 -1.29895 -2.236584 -1.767767 -1.767767 
C -2.236584 -1.29895 -2.5 -0.663008 -2.5 0 
C -2.5 0.663008 -2.236584 1.29895 -1.767767 1.767767 
C -1.29895 2.236584 -0.663008 2.5 0 2.5 
z
" style="stroke: #000000"/>
     </defs>
     <g>
      <use xlink:href="#m2f82b77ad6" x="313.254725" y="74.450937" style="stroke: #000000"/>
     </g>
    </g>
    <g id="text_35">
     <!-- TEE -->
     <g transform="translate(331.254725 77.950937) scale(0.1 -0.1)">
      <use xlink:href="#DejaVuSans-54"/>
      <use xlink:href="#DejaVuSans-45" transform="translate(61.083984 0)"/>
      <use xlink:href="#DejaVuSans-45" transform="translate(124.267578 0)"/>
     </g>
    </g>
   </g>
  </g>
 </g>
 <defs>
  <clipPath id="pd253ed4e37">
   <rect x="40.603125" y="22.318125" width="253.58" height="507.16"/>
  </clipPath>
 </defs>
</svg>
