<?xml version="1.0" encoding="UTF-8"?>
<svg xmlns="http://www.w3.org/2000/svg" width="800" height="400" viewBox="0 0 800 400">
<rect width="100%" height="100%" fill="#fff"/>
<text x="10" y="20" font-size="14">End 1 Shot 6 (rebuild)</text>
<rect x="50" y="30" width="700" height="340" fill="#f0f8ff" stroke="#c0e0ff"/>
<line x1="50.0" y1="30" x2="50.0" y2="370" stroke="#d6d6d6" stroke-width="0.8"/>
<text x="50.0" y="385" font-size="10" text-anchor="middle" fill="#666">-1.0</text>
<line x1="190.0" y1="30" x2="190.0" y2="370" stroke="#d6d6d6" stroke-width="0.8"/>
<text x="190.0" y="385" font-size="10" text-anchor="middle" fill="#666">-0.5</text>
<line x1="330.0" y1="30" x2="330.0" y2="370" stroke="#d6d6d6" stroke-width="0.8"/>
<text x="330.0" y="385" font-size="10" text-anchor="middle" fill="#666">0.0</text>
<line x1="470.0" y1="30" x2="470.0" y2="370" stroke="#d6d6d6" stroke-width="0.8"/>
<text x="470.0" y="385" font-size="10" text-anchor="middle" fill="#666">0.5</text>
<line x1="610.0" y1="30" x2="610.0" y2="370" stroke="#d6d6d6" stroke-width="0.8"/>
<text x="610.0" y="385" font-size="10" text-anchor="middle" fill="#666">1.0</text>
<line x1="750.0" y1="30" x2="750.0" y2="370" stroke="#d6d6d6" stroke-width="0.8"/>
<text x="750.0" y="385" font-size="10" text-anchor="middle" fill="#666">1.5</text>
<line x1="50" y1="370.0" x2="750" y2="370.0" stroke="#d6d6d6" stroke-width="0.8"/>
<text x="44" y="373.0" font-size="10" text-anchor="end" fill="#666">36.0</text>
<line x1="50" y1="327.5" x2="750" y2="327.5" stroke="#d6d6d6" stroke-width="0.8"/>
<text x="44" y="330.5" font-size="10" text-anchor="end" fill="#666">36.5</text>
<line x1="50" y1="285.0" x2="750" y2="285.0" stroke="#d6d6d6" stroke-width="0.8"/>
<text x="44" y="288.0" font-size="10" text-anchor="end" fill="#666">37.0</text>
<line x1="50" y1="242.5" x2="750" y2="242.5" stroke="#d6d6d6" stroke-width="0.8"/>
<text x="44" y="245.5" font-size="10" text-anchor="end" fill="#666">37.5</text>
<line x1="50" y1="200.0" x2="750" y2="200.0" stroke="#d6d6d6" stroke-width="0.8"/>
<text x="44" y="203.0" font-size="10" text-anchor="end" fill="#666">38.0</text>
<line x1="50" y1="157.5" x2="750" y2="157.5" stroke="#d6d6d6" stroke-width="0.8"/>
<text x="44" y="160.5" font-size="10" text-anchor="end" fill="#666">38.5</text>
<line x1="50" y1="115.0" x2="750" y2="115.0" stroke="#d6d6d6" stroke-width="0.8"/>
<text x="44" y="118.0" font-size="10" text-anchor="end" fill="#666">39.0</text>
<line x1="50" y1="72.5" x2="750" y2="72.5" stroke="#d6d6d6" stroke-width="0.8"/>
<text x="44" y="75.5" font-size="10" text-anchor="end" fill="#666">39.5</text>
<line x1="50" y1="30.0" x2="750" y2="30.0" stroke="#d6d6d6" stroke-width="0.8"/>
<text x="44" y="33.0" font-size="10" text-anchor="end" fill="#666">40.0</text>
<text x="400" y="398" font-size="11" text-anchor="middle" fill="#555">x</text>
<text x="14" y="200" font-size="11" text-anchor="middle" fill="#555" transform="rotate(-90 14 200)">y</text>
<circle cx="257.3" cy="191.4" r="8" fill="#2b6cff" stroke="#000" stroke-width="0.6" />
<circle cx="338.7" cy="193.2" r="8" fill="#2b6cff" stroke="#000" stroke-width="0.6" />
<circle cx="164.2" cy="207.5" r="8" fill="#2b6cff" stroke="#000" stroke-width="0.6" />
<circle cx="558.8" cy="191.4" r="8" fill="#2b6cff" stroke="#000" stroke-width="0.6" />
<circle cx="392.8" cy="262.0" r="8" fill="#2b6cff" stroke="#000" stroke-width="0.6" />
<circle cx="318.3" cy="124.4" r="8" fill="#e63946" stroke="#000" stroke-width="0.6" />
<circle cx="458.6" cy="162.3" r="8" fill="#e63946" stroke="#000" stroke-width="0.6" />
<circle cx="422.1" cy="189.3" r="8" fill="#e63946" stroke="#000" stroke-width="0.6" />
<circle cx="339.8" cy="228.9" r="8" fill="#e63946" stroke="#000" stroke-width="0.6" />
<circle cx="210.9" cy="247.5" r="8" fill="#e63946" stroke="#000" stroke-width="0.6" />
<circle cx="311.8" cy="256.2" r="8" fill="#e63946" stroke="#000" stroke-width="0.6" />
<circle cx="396.9" cy="297.7" r="8" fill="#e63946" stroke="#000" stroke-width="0.6" />
<circle cx="330.0" cy="157.5" r="6" fill="none" stroke="#ff9900" stroke-width="3"/>
</svg>
