<?xml version="1.0" encoding="UTF-8"?>
<svg xmlns="http://www.w3.org/2000/svg" width="800" height="400" viewBox="0 0 800 400">
<rect width="100%" height="100%" fill="#fff"/>
<text x="10" y="20" font-size="14">End 3 final (rebuild)</text>
<rect x="50" y="30" width="700" height="340" fill="#f0f8ff" stroke="#c0e0ff"/>
<circle cx="279.1" cy="48.3" r="8" fill="#2b6cff" stroke="#000" stroke-width="0.6" />
<circle cx="310.4" cy="148.6" r="8" fill="#2b6cff" stroke="#000" stroke-width="0.6" />
<circle cx="489.3" cy="165.7" r="8" fill="#2b6cff" stroke="#000" stroke-width="0.6" />
<circle cx="342.9" cy="176.0" r="8" fill="#2b6cff" stroke="#000" stroke-width="0.6" />
<circle cx="145.2" cy="198.7" r="8" fill="#2b6cff" stroke="#000" stroke-width="0.6" />
<circle cx="247.1" cy="194.1" r="8" fill="#2b6cff" stroke="#000" stroke-width="0.6" />
<circle cx="337.6" cy="278.4" r="8" fill="#2b6cff" stroke="#000" stroke-width="0.6" />
<circle cx="70.7" cy="302.1" r="8" fill="#2b6cff" stroke="#000" stroke-width="0.6" />
<circle cx="407.1" cy="150.0" r="8" fill="#e63946" stroke="#000" stroke-width="0.6" />
<circle cx="152.4" cy="149.5" r="8" fill="#e63946" stroke="#000" stroke-width="0.6" />
<circle cx="333.3" cy="203.5" r="8" fill="#e63946" stroke="#000" stroke-width="0.6" />
<circle cx="308.6" cy="240.1" r="8" fill="#e63946" stroke="#000" stroke-width="0.6" />
<circle cx="617.7" cy="181.0" r="8" fill="#e63946" stroke="#000" stroke-width="0.6" />
<circle cx="390.4" cy="230.7" r="8" fill="#e63946" stroke="#000" stroke-width="0.6" />
<circle cx="510.2" cy="257.0" r="8" fill="#e63946" stroke="#000" stroke-width="0.6" />
<circle cx="584.4" cy="353.3" r="8" fill="#e63946" stroke="#000" stroke-width="0.6" />
<circle cx="330.0" cy="157.5" r="6" fill="none" stroke="#ff9900" stroke-width="3"/>
</svg>
