<?xml version="1.0" encoding="UTF-8"?>
<svg xmlns="http://www.w3.org/2000/svg" width="800" height="400" viewBox="0 0 800 400">
<rect width="100%" height="100%" fill="#fff"/>
<text x="10" y="20" font-size="14">End 4 final (rebuild)</text>
<rect x="50" y="30" width="700" height="340" fill="#f0f8ff" stroke="#c0e0ff"/>
<circle cx="326.1" cy="173.1" r="8" fill="#2b6cff" stroke="#000" stroke-width="0.6" />
<circle cx="109.9" cy="166.8" r="8" fill="#2b6cff" stroke="#000" stroke-width="0.6" />
<circle cx="308.5" cy="235.5" r="8" fill="#2b6cff" stroke="#000" stroke-width="0.6" />
<circle cx="60.2" cy="193.4" r="8" fill="#2b6cff" stroke="#000" stroke-width="0.6" />
<circle cx="303.3" cy="262.5" r="8" fill="#2b6cff" stroke="#000" stroke-width="0.6" />
<circle cx="161.0" cy="252.0" r="8" fill="#2b6cff" stroke="#000" stroke-width="0.6" />
<circle cx="235.0" cy="298.2" r="8" fill="#2b6cff" stroke="#000" stroke-width="0.6" />
<circle cx="260.9" cy="336.9" r="8" fill="#2b6cff" stroke="#000" stroke-width="0.6" />
<circle cx="301.3" cy="148.2" r="8" fill="#e63946" stroke="#000" stroke-width="0.6" />
<circle cx="405.7" cy="130.1" r="8" fill="#e63946" stroke="#000" stroke-width="0.6" />
<circle cx="590.9" cy="112.0" r="8" fill="#e63946" stroke="#000" stroke-width="0.6" />
<circle cx="439.7" cy="178.4" r="8" fill="#e63946" stroke="#000" stroke-width="0.6" />
<circle cx="490.6" cy="222.1" r="8" fill="#e63946" stroke="#000" stroke-width="0.6" />
<circle cx="405.1" cy="250.9" r="8" fill="#e63946" stroke="#000" stroke-width="0.6" />
<circle cx="628.5" cy="226.5" r="8" fill="#e63946" stroke="#000" stroke-width="0.6" />
<circle cx="428.2" cy="277.1" r="8" fill="#e63946" stroke="#000" stroke-width="0.6" />
<circle cx="330.0" cy="157.5" r="6" fill="none" stroke="#ff9900" stroke-width="3"/>
</svg>
