<?xml version="1.0" encoding="UTF-8"?>
<svg xmlns="http://www.w3.org/2000/svg" width="800" height="400" viewBox="0 0 800 400">
<rect width="100%" height="100%" fill="#fff"/>
<text x="10" y="20" font-size="14">End 5 final (rebuild)</text>
<rect x="50" y="30" width="700" height="340" fill="#f0f8ff" stroke="#c0e0ff"/>
<circle cx="284.6" cy="168.5" r="8" fill="#2b6cff" stroke="#000" stroke-width="0.6" />
<circle cx="137.5" cy="146.6" r="8" fill="#2b6cff" stroke="#000" stroke-width="0.6" />
<circle cx="66.4" cy="182.0" r="8" fill="#2b6cff" stroke="#000" stroke-width="0.6" />
<circle cx="231.2" cy="198.6" r="8" fill="#2b6cff" stroke="#000" stroke-width="0.6" />
<circle cx="355.3" cy="237.2" r="8" fill="#2b6cff" stroke="#000" stroke-width="0.6" />
<circle cx="273.9" cy="241.8" r="8" fill="#2b6cff" stroke="#000" stroke-width="0.6" />
<circle cx="144.9" cy="198.4" r="8" fill="#2b6cff" stroke="#000" stroke-width="0.6" />
<circle cx="248.7" cy="348.0" r="8" fill="#2b6cff" stroke="#000" stroke-width="0.6" />
<circle cx="320.6" cy="111.0" r="8" fill="#e63946" stroke="#000" stroke-width="0.6" />
<circle cx="514.4" cy="122.1" r="8" fill="#e63946" stroke="#000" stroke-width="0.6" />
<circle cx="323.1" cy="192.6" r="8" fill="#e63946" stroke="#000" stroke-width="0.6" />
<circle cx="588.1" cy="153.5" r="8" fill="#e63946" stroke="#000" stroke-width="0.6" />
<circle cx="498.4" cy="223.8" r="8" fill="#e63946" stroke="#000" stroke-width="0.6" />
<circle cx="399.7" cy="206.0" r="8" fill="#e63946" stroke="#000" stroke-width="0.6" />
<circle cx="366.9" cy="275.3" r="8" fill="#e63946" stroke="#000" stroke-width="0.6" />
<circle cx="356.7" cy="305.6" r="8" fill="#e63946" stroke="#000" stroke-width="0.6" />
<circle cx="330.0" cy="157.5" r="6" fill="none" stroke="#ff9900" stroke-width="3"/>
</svg>
