<?xml version="1.0" encoding="UTF-8"?>
<svg xmlns="http://www.w3.org/2000/svg" width="800" height="400" viewBox="0 0 800 400">
<rect width="100%" height="100%" fill="#fff"/>
<text x="10" y="20" font-size="14">End 6 final (rebuild)</text>
<rect x="50" y="30" width="700" height="340" fill="#f0f8ff" stroke="#c0e0ff"/>
<circle cx="348.3" cy="136.0" r="8" fill="#2b6cff" stroke="#000" stroke-width="0.6" />
<circle cx="441.1" cy="142.8" r="8" fill="#2b6cff" stroke="#000" stroke-width="0.6" />
<circle cx="482.8" cy="217.2" r="8" fill="#2b6cff" stroke="#000" stroke-width="0.6" />
<circle cx="272.7" cy="171.8" r="8" fill="#2b6cff" stroke="#000" stroke-width="0.6" />
<circle cx="187.1" cy="179.9" r="8" fill="#2b6cff" stroke="#000" stroke-width="0.6" />
<circle cx="227.9" cy="216.0" r="8" fill="#2b6cff" stroke="#000" stroke-width="0.6" />
<circle cx="135.8" cy="248.0" r="8" fill="#2b6cff" stroke="#000" stroke-width="0.6" />
<circle cx="216.5" cy="318.9" r="8" fill="#2b6cff" stroke="#000" stroke-width="0.6" />
<circle cx="191.0" cy="73.2" r="8" fill="#e63946" stroke="#000" stroke-width="0.6" />
<circle cx="201.1" cy="117.0" r="8" fill="#e63946" stroke="#000" stroke-width="0.6" />
<circle cx="244.0" cy="144.2" r="8" fill="#e63946" stroke="#000" stroke-width="0.6" />
<circle cx="105.9" cy="181.1" r="8" fill="#e63946" stroke="#000" stroke-width="0.6" />
<circle cx="563.1" cy="309.6" r="8" fill="#e63946" stroke="#000" stroke-width="0.6" />
<circle cx="343.3" cy="197.9" r="8" fill="#e63946" stroke="#000" stroke-width="0.6" />
<circle cx="371.0" cy="258.3" r="8" fill="#e63946" stroke="#000" stroke-width="0.6" />
<circle cx="315.0" cy="281.8" r="8" fill="#e63946" stroke="#000" stroke-width="0.6" />
<circle cx="330.0" cy="157.5" r="6" fill="none" stroke="#ff9900" stroke-width="3"/>
</svg>
