<?xml version="1.0" encoding="UTF-8"?>
<svg xmlns="http://www.w3.org/2000/svg" width="800" height="400" viewBox="0 0 800 400">
<rect width="100%" height="100%" fill="#fff"/>
<text x="10" y="20" font-size="14">End 3 final (rebuild)</text>
<rect x="50" y="30" width="700" height="340" fill="#f0f8ff" stroke="#c0e0ff"/>
<circle cx="358.1" cy="105.0" r="8" fill="#2b6cff" stroke="#000" stroke-width="0.6" />
<circle cx="337.6" cy="161.7" r="8" fill="#2b6cff" stroke="#000" stroke-width="0.6" />
<circle cx="503.9" cy="181.3" r="8" fill="#2b6cff" stroke="#000" stroke-width="0.6" />
<circle cx="514.1" cy="214.5" r="8" fill="#2b6cff" stroke="#000" stroke-width="0.6" />
<circle cx="599.0" cy="227.4" r="8" fill="#2b6cff" stroke="#000" stroke-width="0.6" />
<circle cx="422.3" cy="184.2" r="8" fill="#2b6cff" stroke="#000" stroke-width="0.6" />
<circle cx="541.8" cy="273.6" r="8" fill="#2b6cff" stroke="#000" stroke-width="0.6" />
<circle cx="357.6" cy="210.3" r="8" fill="#2b6cff" stroke="#000" stroke-width="0.6" />
<circle cx="398.7" cy="144.9" r="8" fill="#e63946" stroke="#000" stroke-width="0.6" />
<circle cx="175.0" cy="186.2" r="8" fill="#e63946" stroke="#000" stroke-width="0.6" />
<circle cx="184.2" cy="226.3" r="8" fill="#e63946" stroke="#000" stroke-width="0.6" />
<circle cx="281.1" cy="193.2" r="8" fill="#e63946" stroke="#000" stroke-width="0.6" />
<circle cx="278.6" cy="227.7" r="8" fill="#e63946" stroke="#000" stroke-width="0.6" />
<circle cx="215.2" cy="253.2" r="8" fill="#e63946" stroke="#000" stroke-width="0.6" />
<circle cx="302.5" cy="258.2" r="8" fill="#e63946" stroke="#000" stroke-width="0.6" />
<circle cx="387.7" cy="265.7" r="8" fill="#e63946" stroke="#000" stroke-width="0.6" />
<circle cx="330.0" cy="157.5" r="6" fill="none" stroke="#ff9900" stroke-width="3"/>
</svg>
