<?xml version="1.0" encoding="UTF-8"?>
<svg xmlns="http://www.w3.org/2000/svg" width="800" height="400" viewBox="0 0 800 400">
<rect width="100%" height="100%" fill="#fff"/>
<text x="10" y="20" font-size="14">End 9 final (rebuild)</text>
<rect x="50" y="30" width="700" height="340" fill="#f0f8ff" stroke="#c0e0ff"/>
<circle cx="333.5" cy="160.1" r="8" fill="#2b6cff" stroke="#000" stroke-width="0.6" />
<circle cx="94.4" cy="176.1" r="8" fill="#2b6cff" stroke="#000" stroke-width="0.6" />
<circle cx="195.2" cy="178.8" r="8" fill="#2b6cff" stroke="#000" stroke-width="0.6" />
<circle cx="158.1" cy="224.2" r="8" fill="#2b6cff" stroke="#000" stroke-width="0.6" />
<circle cx="290.0" cy="184.6" r="8" fill="#2b6cff" stroke="#000" stroke-width="0.6" />
<circle cx="461.9" cy="260.8" r="8" fill="#2b6cff" stroke="#000" stroke-width="0.6" />
<circle cx="612.2" cy="241.3" r="8" fill="#2b6cff" stroke="#000" stroke-width="0.6" />
<circle cx="347.1" cy="367.8" r="8" fill="#2b6cff" stroke="#000" stroke-width="0.6" />
<circle cx="509.8" cy="166.9" r="8" fill="#e63946" stroke="#000" stroke-width="0.6" />
<circle cx="502.6" cy="195.7" r="8" fill="#e63946" stroke="#000" stroke-width="0.6" />
<circle cx="384.0" cy="183.2" r="8" fill="#e63946" stroke="#000" stroke-width="0.6" />
<circle cx="438.8" cy="212.9" r="8" fill="#e63946" stroke="#000" stroke-width="0.6" />
<circle cx="281.3" cy="222.1" r="8" fill="#e63946" stroke="#000" stroke-width="0.6" />
<circle cx="203.9" cy="255.0" r="8" fill="#e63946" stroke="#000" stroke-width="0.6" />
<circle cx="337.7" cy="278.7" r="8" fill="#e63946" stroke="#000" stroke-width="0.6" />
<circle cx="448.3" cy="402.4" r="8" fill="#e63946" stroke="#000" stroke-width="0.6" />
<circle cx="330.0" cy="157.5" r="6" fill="none" stroke="#ff9900" stroke-width="3"/>
</svg>
