<?xml version="1.0" encoding="utf-8" standalone="no"?>
<!DOCTYPE svg PUBLIC "-//W3C//DTD SVG 1.1//EN"
  "http://www.w3.org/Graphics/SVG/1.1/DTD/svg11.dtd">
<svg xmlns:xlink="http://www.w3.org/1999/xlink" width="374.759412pt" height="567.034375pt" viewBox="0 0 374.759412 567.034375" xmlns="http://www.w3.org/2000/svg" version="1.1">
 <metadata>
  <rdf:RDF xmlns:dc="http://purl.org/dc/elements/1.1/" xmlns:cc="http://creativecommons.org/ns#" xmlns:rdf="http://www.w3.org/1999/02/22-rdf-syntax-ns#">
   <cc:Work>
    <dc:type rdf:resource="http://purl.org/dc/dcmitype/StillImage"/>
    <dc:date>2026-03-04T11:29:39.126614</dc:date>
    <dc:format>image/svg+xml</dc:format>
    <dc:creator>
     <cc:Agent>
      <dc:title>Matplotlib v3.10.8, https://matplotlib.org/</dc:title>
     </cc:Agent>
    </dc:creator>
   </cc:Work>
  </rdf:RDF>
 </metadata>
 <defs>
  <style type="text/css">*{stroke-linejoin: round; stroke-linecap: butt}</style>
 </defs>
 <g id="figure_1">
  <g id="patch_1">
   <path d="M 0 567.034375 
L 374.759412 567.034375 
L 374.759412 0 
L 0 0 
z
" style="fill: #ffffff"/>
  </g>
  <g id="axes_1">
   <g id="patch_2">
    <path d="M 40.603125 529.478125 
L 294.183125 529.478125 
L 294.183125 22.318125 
L 40.603125 22.318125 
z
" style="fill: #ffffff"/>
   </g>
   <g id="patch_3">
    <path d="M 167.393125 247.539428 
C 187.893228 247.539428 207.55646 239.394651 222.052222 224.898889 
C 236.547984 210.403127 244.692762 190.739895 244.692762 170.239792 
C 244.692762 149.739688 236.547984 130.076456 222.052222 115.580694 
C 207.55646 101.084932 187.893228 92.940155 167.393125 92.940155 
C 146.893022 92.940155 127.22979 101.084932 112.734028 115.580694 
C 98.238266 130.076456 90.093488 149.739688 90.093488 170.239792 
C 90.093488 190.739895 98.238266 210.403127 112.734028 224.898889 
C 127.22979 239.394651 146.893022 247.539428 167.393125 247.539428 
L 167.393125 247.539428 
z
" clip-path="url(#pee2ebc0272)" style="fill: none; stroke: #808080; stroke-linejoin: miter"/>
   </g>
   <g id="patch_4">
    <path d="M 161.957883 175.203631 
C 163.583096 175.203631 165.141963 174.557927 166.291163 173.408728 
C 167.440362 172.259528 168.086066 170.700661 168.086066 169.075448 
C 168.086066 167.450234 167.440362 165.891367 166.291163 164.742168 
C 165.141963 163.592968 163.583096 162.947264 161.957883 162.947264 
C 160.332669 162.947264 158.773802 163.592968 157.624603 164.742168 
C 156.475403 165.891367 155.829699 167.450234 155.829699 169.075448 
C 155.829699 170.700661 156.475403 172.259528 157.624603 173.408728 
C 158.773802 174.557927 160.332669 175.203631 161.957883 175.203631 
z
" clip-path="url(#pee2ebc0272)" style="fill: #ff0000; stroke: #000000; stroke-linejoin: miter"/>
   </g>
   <g id="patch_5">
    <path d="M 134.480489 161.462856 
C 136.105702 161.462856 137.664569 160.817152 138.813769 159.667953 
C 139.962968 158.518754 140.608672 156.959886 140.608672 155.334673 
C 140.608672 153.70946 139.962968 152.150592 138.813769 151.001393 
C 137.664569 149.852194 136.105702 149.20649 134.480489 149.20649 
C 132.855275 149.20649 131.296408 149.852194 130.147209 151.001393 
C 128.998009 152.150592 128.352305 153.70946 128.352305 155.334673 
C 128.352305 156.959886 128.998009 158.518754 130.147209 159.667953 
C 131.296408 160.817152 132.855275 161.462856 134.480489 161.462856 
z
" clip-path="url(#pee2ebc0272)" style="fill: #ff0000; stroke: #000000; stroke-linejoin: miter"/>
   </g>
   <g id="patch_6">
    <path d="M 142.545963 179.735093 
C 144.171176 179.735093 145.730044 179.089389 146.879243 177.940189 
C 148.028442 176.79099 148.674146 175.232123 148.674146 173.606909 
C 148.674146 171.981696 148.028442 170.422829 146.879243 169.273629 
C 145.730044 168.12443 144.171176 167.478726 142.545963 167.478726 
C 140.92075 167.478726 139.361882 168.12443 138.212683 169.273629 
C 137.063484 170.422829 136.41778 171.981696 136.41778 173.606909 
C 136.41778 175.232123 137.063484 176.79099 138.212683 177.940189 
C 139.361882 179.089389 140.92075 179.735093 142.545963 179.735093 
z
" clip-path="url(#pee2ebc0272)" style="fill: #ff0000; stroke: #000000; stroke-linejoin: miter"/>
   </g>
   <g id="patch_7">
    <path d="M 161.675074 207.061063 
C 163.300287 207.061063 164.859154 206.415359 166.008354 205.26616 
C 167.157553 204.11696 167.803257 202.558093 167.803257 200.93288 
C 167.803257 199.307666 167.157553 197.748799 166.008354 196.5996 
C 164.859154 195.4504 163.300287 194.804696 161.675074 194.804696 
C 160.049861 194.804696 158.490993 195.4504 157.341794 196.5996 
C 156.192595 197.748799 155.54689 199.307666 155.54689 200.93288 
C 155.54689 202.558093 156.192595 204.11696 157.341794 205.26616 
C 158.490993 206.415359 160.049861 207.061063 161.675074 207.061063 
z
" clip-path="url(#pee2ebc0272)" style="fill: #ff0000; stroke: #000000; stroke-linejoin: miter"/>
   </g>
   <g id="patch_8">
    <path d="M 152.67118 232.05238 
C 154.296393 232.05238 155.85526 231.406676 157.004459 230.257477 
C 158.153659 229.108278 158.799363 227.54941 158.799363 225.924197 
C 158.799363 224.298984 158.153659 222.740116 157.004459 221.590917 
C 155.85526 220.441718 154.296393 219.796013 152.67118 219.796013 
C 151.045966 219.796013 149.487099 220.441718 148.3379 221.590917 
C 147.1887 222.740116 146.542996 224.298984 146.542996 225.924197 
C 146.542996 227.54941 147.1887 229.108278 148.3379 230.257477 
C 149.487099 231.406676 151.045966 232.05238 152.67118 232.05238 
z
" clip-path="url(#pee2ebc0272)" style="fill: #ff0000; stroke: #000000; stroke-linejoin: miter"/>
   </g>
   <g id="patch_9">
    <path d="M 191.091357 173.644777 
C 192.716571 173.644777 194.275438 172.999073 195.424637 171.849874 
C 196.573837 170.700675 197.219541 169.141807 197.219541 167.516594 
C 197.219541 165.891381 196.573837 164.332513 195.424637 163.183314 
C 194.275438 162.034115 192.716571 161.388411 191.091357 161.388411 
C 189.466144 161.388411 187.907277 162.034115 186.758077 163.183314 
C 185.608878 164.332513 184.963174 165.891381 184.963174 167.516594 
C 184.963174 169.141807 185.608878 170.700675 186.758077 171.849874 
C 187.907277 172.999073 189.466144 173.644777 191.091357 173.644777 
z
" clip-path="url(#pee2ebc0272)" style="fill: #ffd700; stroke: #000000; stroke-linejoin: miter"/>
   </g>
   <g id="patch_10">
    <path d="M 174.989655 182.223552 
C 176.614869 182.223552 178.173736 181.577848 179.322935 180.428648 
C 180.472135 179.279449 181.117839 177.720581 181.117839 176.095368 
C 181.117839 174.470155 180.472135 172.911288 179.322935 171.762088 
C 178.173736 170.612889 176.614869 169.967185 174.989655 169.967185 
C 173.364442 169.967185 171.805575 170.612889 170.656375 171.762088 
C 169.507176 172.911288 168.861472 174.470155 168.861472 176.095368 
C 168.861472 177.720581 169.507176 179.279449 170.656375 180.428648 
C 171.805575 181.577848 173.364442 182.223552 174.989655 182.223552 
z
" clip-path="url(#pee2ebc0272)" style="fill: #ffd700; stroke: #000000; stroke-linejoin: miter"/>
   </g>
   <g id="patch_11">
    <path d="M 189.289086 194.11753 
C 190.9143 194.11753 192.473167 193.471826 193.622366 192.322627 
C 194.771566 191.173428 195.41727 189.61456 195.41727 187.989347 
C 195.41727 186.364134 194.771566 184.805266 193.622366 183.656067 
C 192.473167 182.506868 190.9143 181.861164 189.289086 181.861164 
C 187.663873 181.861164 186.105006 182.506868 184.955806 183.656067 
C 183.806607 184.805266 183.160903 186.364134 183.160903 187.989347 
C 183.160903 189.61456 183.806607 191.173428 184.955806 192.322627 
C 186.105006 193.471826 187.663873 194.11753 189.289086 194.11753 
z
" clip-path="url(#pee2ebc0272)" style="fill: #ffd700; stroke: #000000; stroke-linejoin: miter"/>
   </g>
   <g id="patch_12">
    <path d="M 176.143419 213.888646 
C 177.768632 213.888646 179.3275 213.242942 180.476699 212.093743 
C 181.625899 210.944543 182.271603 209.385676 182.271603 207.760463 
C 182.271603 206.135249 181.625899 204.576382 180.476699 203.427183 
C 179.3275 202.277983 177.768632 201.632279 176.143419 201.632279 
C 174.518206 201.632279 172.959339 202.277983 171.810139 203.427183 
C 170.66094 204.576382 170.015236 206.135249 170.015236 207.760463 
C 170.015236 209.385676 170.66094 210.944543 171.810139 212.093743 
C 172.959339 213.242942 174.518206 213.888646 176.143419 213.888646 
z
" clip-path="url(#pee2ebc0272)" style="fill: #ffd700; stroke: #000000; stroke-linejoin: miter"/>
   </g>
   <g id="patch_13">
    <path d="M 174.626423 251.929096 
C 176.251636 251.929096 177.810503 251.283392 178.959703 250.134193 
C 180.108902 248.984994 180.754606 247.426126 180.754606 245.800913 
C 180.754606 244.1757 180.108902 242.616832 178.959703 241.467633 
C 177.810503 240.318434 176.251636 239.672729 174.626423 239.672729 
C 173.001209 239.672729 171.442342 240.318434 170.293143 241.467633 
C 169.143943 242.616832 168.498239 244.1757 168.498239 245.800913 
C 168.498239 247.426126 169.143943 248.984994 170.293143 250.134193 
C 171.442342 251.283392 173.001209 251.929096 174.626423 251.929096 
z
" clip-path="url(#pee2ebc0272)" style="fill: #ffd700; stroke: #000000; stroke-linejoin: miter"/>
   </g>
   <g id="patch_14">
    <path d="M 167.393125 172.997474 
C 168.124471 172.997474 168.825961 172.706907 169.343101 172.189768 
C 169.860241 171.672628 170.150807 170.971138 170.150807 170.239792 
C 170.150807 169.508446 169.860241 168.806955 169.343101 168.289816 
C 168.825961 167.772676 168.124471 167.482109 167.393125 167.482109 
C 166.661779 167.482109 165.960289 167.772676 165.443149 168.289816 
C 164.926009 168.806955 164.635443 169.508446 164.635443 170.239792 
C 164.635443 170.971138 164.926009 171.672628 165.443149 172.189768 
C 165.960289 172.706907 166.661779 172.997474 167.393125 172.997474 
z
" clip-path="url(#pee2ebc0272)" style="opacity: 0.85; stroke: #000000; stroke-linejoin: miter"/>
   </g>
   <g id="matplotlib.axis_1">
    <g id="xtick_1">
     <g id="line2d_1">
      <path d="M 40.603125 529.478125 
L 40.603125 22.318125 
" clip-path="url(#pee2ebc0272)" style="fill: none; stroke: #b0b0b0; stroke-opacity: 0.25; stroke-width: 0.8; stroke-linecap: square"/>
     </g>
     <g id="line2d_2">
      <defs>
       <path id="mc1de9ac0de" d="M 0 0 
L 0 3.5 
" style="stroke: #000000; stroke-width: 0.8"/>
      </defs>
      <g>
       <use xlink:href="#mc1de9ac0de" x="40.603125" y="529.478125" style="stroke: #000000; stroke-width: 0.8"/>
      </g>
     </g>
     <g id="text_1">
      <!-- −3 -->
      <g transform="translate(33.232031 544.076562) scale(0.1 -0.1)">
       <defs>
        <path id="DejaVuSans-2212" d="M 678 2272 
L 4684 2272 
L 4684 1741 
L 678 1741 
L 678 2272 
z
" transform="scale(0.015625)"/>
        <path id="DejaVuSans-33" d="M 2597 2516 
Q 3050 2419 3304 2112 
Q 3559 1806 3559 1356 
Q 3559 666 3084 287 
Q 2609 -91 1734 -91 
Q 1441 -91 1130 -33 
Q 819 25 488 141 
L 488 750 
Q 750 597 1062 519 
Q 1375 441 1716 441 
Q 2309 441 2620 675 
Q 2931 909 2931 1356 
Q 2931 1769 2642 2001 
Q 2353 2234 1838 2234 
L 1294 2234 
L 1294 2753 
L 1863 2753 
Q 2328 2753 2575 2939 
Q 2822 3125 2822 3475 
Q 2822 3834 2567 4026 
Q 2313 4219 1838 4219 
Q 1578 4219 1281 4162 
Q 984 4106 628 3988 
L 628 4550 
Q 988 4650 1302 4700 
Q 1616 4750 1894 4750 
Q 2613 4750 3031 4423 
Q 3450 4097 3450 3541 
Q 3450 3153 3228 2886 
Q 3006 2619 2597 2516 
z
" transform="scale(0.015625)"/>
       </defs>
       <use xlink:href="#DejaVuSans-2212"/>
       <use xlink:href="#DejaVuSans-33" transform="translate(83.789062 0)"/>
      </g>
     </g>
    </g>
    <g id="xtick_2">
     <g id="line2d_3">
      <path d="M 82.866458 529.478125 
L 82.866458 22.318125 
" clip-path="url(#pee2ebc0272)" style="fill: none; stroke: #b0b0b0; stroke-opacity: 0.25; stroke-width: 0.8; stroke-linecap: square"/>
     </g>
     <g id="line2d_4">
      <g>
       <use xlink:href="#mc1de9ac0de" x="82.866458" y="529.478125" style="stroke: #000000; stroke-width: 0.8"/>
      </g>
     </g>
     <g id="text_2">
      <!-- −2 -->
      <g transform="translate(75.495365 544.076562) scale(0.1 -0.1)">
       <defs>
        <path id="DejaVuSans-32" d="M 1228 531 
L 3431 531 
L 3431 0 
L 469 0 
L 469 531 
Q 828 903 1448 1529 
Q 2069 2156 2228 2338 
Q 2531 2678 2651 2914 
Q 2772 3150 2772 3378 
Q 2772 3750 2511 3984 
Q 2250 4219 1831 4219 
Q 1534 4219 1204 4116 
Q 875 4013 500 3803 
L 500 4441 
Q 881 4594 1212 4672 
Q 1544 4750 1819 4750 
Q 2544 4750 2975 4387 
Q 3406 4025 3406 3419 
Q 3406 3131 3298 2873 
Q 3191 2616 2906 2266 
Q 2828 2175 2409 1742 
Q 1991 1309 1228 531 
z
" transform="scale(0.015625)"/>
       </defs>
       <use xlink:href="#DejaVuSans-2212"/>
       <use xlink:href="#DejaVuSans-32" transform="translate(83.789062 0)"/>
      </g>
     </g>
    </g>
    <g id="xtick_3">
     <g id="line2d_5">
      <path d="M 125.129792 529.478125 
L 125.129792 22.318125 
" clip-path="url(#pee2ebc0272)" style="fill: none; stroke: #b0b0b0; stroke-opacity: 0.25; stroke-width: 0.8; stroke-linecap: square"/>
     </g>
     <g id="line2d_6">
      <g>
       <use xlink:href="#mc1de9ac0de" x="125.129792" y="529.478125" style="stroke: #000000; stroke-width: 0.8"/>
      </g>
     </g>
     <g id="text_3">
      <!-- −1 -->
      <g transform="translate(117.758698 544.076562) scale(0.1 -0.1)">
       <defs>
        <path id="DejaVuSans-31" d="M 794 531 
L 1825 531 
L 1825 4091 
L 703 3866 
L 703 4441 
L 1819 4666 
L 2450 4666 
L 2450 531 
L 3481 531 
L 3481 0 
L 794 0 
L 794 531 
z
" transform="scale(0.015625)"/>
       </defs>
       <use xlink:href="#DejaVuSans-2212"/>
       <use xlink:href="#DejaVuSans-31" transform="translate(83.789062 0)"/>
      </g>
     </g>
    </g>
    <g id="xtick_4">
     <g id="line2d_7">
      <path d="M 167.393125 529.478125 
L 167.393125 22.318125 
" clip-path="url(#pee2ebc0272)" style="fill: none; stroke: #b0b0b0; stroke-opacity: 0.25; stroke-width: 0.8; stroke-linecap: square"/>
     </g>
     <g id="line2d_8">
      <g>
       <use xlink:href="#mc1de9ac0de" x="167.393125" y="529.478125" style="stroke: #000000; stroke-width: 0.8"/>
      </g>
     </g>
     <g id="text_4">
      <!-- 0 -->
      <g transform="translate(164.211875 544.076562) scale(0.1 -0.1)">
       <defs>
        <path id="DejaVuSans-30" d="M 2034 4250 
Q 1547 4250 1301 3770 
Q 1056 3291 1056 2328 
Q 1056 1369 1301 889 
Q 1547 409 2034 409 
Q 2525 409 2770 889 
Q 3016 1369 3016 2328 
Q 3016 3291 2770 3770 
Q 2525 4250 2034 4250 
z
M 2034 4750 
Q 2819 4750 3233 4129 
Q 3647 3509 3647 2328 
Q 3647 1150 3233 529 
Q 2819 -91 2034 -91 
Q 1250 -91 836 529 
Q 422 1150 422 2328 
Q 422 3509 836 4129 
Q 1250 4750 2034 4750 
z
" transform="scale(0.015625)"/>
       </defs>
       <use xlink:href="#DejaVuSans-30"/>
      </g>
     </g>
    </g>
    <g id="xtick_5">
     <g id="line2d_9">
      <path d="M 209.656458 529.478125 
L 209.656458 22.318125 
" clip-path="url(#pee2ebc0272)" style="fill: none; stroke: #b0b0b0; stroke-opacity: 0.25; stroke-width: 0.8; stroke-linecap: square"/>
     </g>
     <g id="line2d_10">
      <g>
       <use xlink:href="#mc1de9ac0de" x="209.656458" y="529.478125" style="stroke: #000000; stroke-width: 0.8"/>
      </g>
     </g>
     <g id="text_5">
      <!-- 1 -->
      <g transform="translate(206.475208 544.076562) scale(0.1 -0.1)">
       <use xlink:href="#DejaVuSans-31"/>
      </g>
     </g>
    </g>
    <g id="xtick_6">
     <g id="line2d_11">
      <path d="M 251.919792 529.478125 
L 251.919792 22.318125 
" clip-path="url(#pee2ebc0272)" style="fill: none; stroke: #b0b0b0; stroke-opacity: 0.25; stroke-width: 0.8; stroke-linecap: square"/>
     </g>
     <g id="line2d_12">
      <g>
       <use xlink:href="#mc1de9ac0de" x="251.919792" y="529.478125" style="stroke: #000000; stroke-width: 0.8"/>
      </g>
     </g>
     <g id="text_6">
      <!-- 2 -->
      <g transform="translate(248.738542 544.076562) scale(0.1 -0.1)">
       <use xlink:href="#DejaVuSans-32"/>
      </g>
     </g>
    </g>
    <g id="xtick_7">
     <g id="line2d_13">
      <path d="M 294.183125 529.478125 
L 294.183125 22.318125 
" clip-path="url(#pee2ebc0272)" style="fill: none; stroke: #b0b0b0; stroke-opacity: 0.25; stroke-width: 0.8; stroke-linecap: square"/>
     </g>
     <g id="line2d_14">
      <g>
       <use xlink:href="#mc1de9ac0de" x="294.183125" y="529.478125" style="stroke: #000000; stroke-width: 0.8"/>
      </g>
     </g>
     <g id="text_7">
      <!-- 3 -->
      <g transform="translate(291.001875 544.076562) scale(0.1 -0.1)">
       <use xlink:href="#DejaVuSans-33"/>
      </g>
     </g>
    </g>
    <g id="text_8">
     <!-- X -->
     <g transform="translate(163.968125 557.754687) scale(0.1 -0.1)">
      <defs>
       <path id="DejaVuSans-58" d="M 403 4666 
L 1081 4666 
L 2241 2931 
L 3406 4666 
L 4084 4666 
L 2584 2425 
L 4184 0 
L 3506 0 
L 2194 1984 
L 872 0 
L 191 0 
L 1856 2491 
L 403 4666 
z
" transform="scale(0.015625)"/>
      </defs>
      <use xlink:href="#DejaVuSans-58"/>
     </g>
    </g>
   </g>
   <g id="matplotlib.axis_2">
    <g id="ytick_1">
     <g id="line2d_15">
      <path d="M 40.603125 529.478125 
L 294.183125 529.478125 
" clip-path="url(#pee2ebc0272)" style="fill: none; stroke: #b0b0b0; stroke-opacity: 0.25; stroke-width: 0.8; stroke-linecap: square"/>
     </g>
     <g id="line2d_16">
      <defs>
       <path id="ma187b09a93" d="M 0 0 
L -3.5 0 
" style="stroke: #000000; stroke-width: 0.8"/>
      </defs>
      <g>
       <use xlink:href="#ma187b09a93" x="40.603125" y="529.478125" style="stroke: #000000; stroke-width: 0.8"/>
      </g>
     </g>
     <g id="text_9">
      <!-- 30 -->
      <g transform="translate(20.878125 533.277344) scale(0.1 -0.1)">
       <use xlink:href="#DejaVuSans-33"/>
       <use xlink:href="#DejaVuSans-30" transform="translate(63.623047 0)"/>
      </g>
     </g>
    </g>
    <g id="ytick_2">
     <g id="line2d_17">
      <path d="M 40.603125 444.951458 
L 294.183125 444.951458 
" clip-path="url(#pee2ebc0272)" style="fill: none; stroke: #b0b0b0; stroke-opacity: 0.25; stroke-width: 0.8; stroke-linecap: square"/>
     </g>
     <g id="line2d_18">
      <g>
       <use xlink:href="#ma187b09a93" x="40.603125" y="444.951458" style="stroke: #000000; stroke-width: 0.8"/>
      </g>
     </g>
     <g id="text_10">
      <!-- 32 -->
      <g transform="translate(20.878125 448.750677) scale(0.1 -0.1)">
       <use xlink:href="#DejaVuSans-33"/>
       <use xlink:href="#DejaVuSans-32" transform="translate(63.623047 0)"/>
      </g>
     </g>
    </g>
    <g id="ytick_3">
     <g id="line2d_19">
      <path d="M 40.603125 360.424792 
L 294.183125 360.424792 
" clip-path="url(#pee2ebc0272)" style="fill: none; stroke: #b0b0b0; stroke-opacity: 0.25; stroke-width: 0.8; stroke-linecap: square"/>
     </g>
     <g id="line2d_20">
      <g>
       <use xlink:href="#ma187b09a93" x="40.603125" y="360.424792" style="stroke: #000000; stroke-width: 0.8"/>
      </g>
     </g>
     <g id="text_11">
      <!-- 34 -->
      <g transform="translate(20.878125 364.22401) scale(0.1 -0.1)">
       <defs>
        <path id="DejaVuSans-34" d="M 2419 4116 
L 825 1625 
L 2419 1625 
L 2419 4116 
z
M 2253 4666 
L 3047 4666 
L 3047 1625 
L 3713 1625 
L 3713 1100 
L 3047 1100 
L 3047 0 
L 2419 0 
L 2419 1100 
L 313 1100 
L 313 1709 
L 2253 4666 
z
" transform="scale(0.015625)"/>
       </defs>
       <use xlink:href="#DejaVuSans-33"/>
       <use xlink:href="#DejaVuSans-34" transform="translate(63.623047 0)"/>
      </g>
     </g>
    </g>
    <g id="ytick_4">
     <g id="line2d_21">
      <path d="M 40.603125 275.898125 
L 294.183125 275.898125 
" clip-path="url(#pee2ebc0272)" style="fill: none; stroke: #b0b0b0; stroke-opacity: 0.25; stroke-width: 0.8; stroke-linecap: square"/>
     </g>
     <g id="line2d_22">
      <g>
       <use xlink:href="#ma187b09a93" x="40.603125" y="275.898125" style="stroke: #000000; stroke-width: 0.8"/>
      </g>
     </g>
     <g id="text_12">
      <!-- 36 -->
      <g transform="translate(20.878125 279.697344) scale(0.1 -0.1)">
       <defs>
        <path id="DejaVuSans-36" d="M 2113 2584 
Q 1688 2584 1439 2293 
Q 1191 2003 1191 1497 
Q 1191 994 1439 701 
Q 1688 409 2113 409 
Q 2538 409 2786 701 
Q 3034 994 3034 1497 
Q 3034 2003 2786 2293 
Q 2538 2584 2113 2584 
z
M 3366 4563 
L 3366 3988 
Q 3128 4100 2886 4159 
Q 2644 4219 2406 4219 
Q 1781 4219 1451 3797 
Q 1122 3375 1075 2522 
Q 1259 2794 1537 2939 
Q 1816 3084 2150 3084 
Q 2853 3084 3261 2657 
Q 3669 2231 3669 1497 
Q 3669 778 3244 343 
Q 2819 -91 2113 -91 
Q 1303 -91 875 529 
Q 447 1150 447 2328 
Q 447 3434 972 4092 
Q 1497 4750 2381 4750 
Q 2619 4750 2861 4703 
Q 3103 4656 3366 4563 
z
" transform="scale(0.015625)"/>
       </defs>
       <use xlink:href="#DejaVuSans-33"/>
       <use xlink:href="#DejaVuSans-36" transform="translate(63.623047 0)"/>
      </g>
     </g>
    </g>
    <g id="ytick_5">
     <g id="line2d_23">
      <path d="M 40.603125 191.371458 
L 294.183125 191.371458 
" clip-path="url(#pee2ebc0272)" style="fill: none; stroke: #b0b0b0; stroke-opacity: 0.25; stroke-width: 0.8; stroke-linecap: square"/>
     </g>
     <g id="line2d_24">
      <g>
       <use xlink:href="#ma187b09a93" x="40.603125" y="191.371458" style="stroke: #000000; stroke-width: 0.8"/>
      </g>
     </g>
     <g id="text_13">
      <!-- 38 -->
      <g transform="translate(20.878125 195.170677) scale(0.1 -0.1)">
       <defs>
        <path id="DejaVuSans-38" d="M 2034 2216 
Q 1584 2216 1326 1975 
Q 1069 1734 1069 1313 
Q 1069 891 1326 650 
Q 1584 409 2034 409 
Q 2484 409 2743 651 
Q 3003 894 3003 1313 
Q 3003 1734 2745 1975 
Q 2488 2216 2034 2216 
z
M 1403 2484 
Q 997 2584 770 2862 
Q 544 3141 544 3541 
Q 544 4100 942 4425 
Q 1341 4750 2034 4750 
Q 2731 4750 3128 4425 
Q 3525 4100 3525 3541 
Q 3525 3141 3298 2862 
Q 3072 2584 2669 2484 
Q 3125 2378 3379 2068 
Q 3634 1759 3634 1313 
Q 3634 634 3220 271 
Q 2806 -91 2034 -91 
Q 1263 -91 848 271 
Q 434 634 434 1313 
Q 434 1759 690 2068 
Q 947 2378 1403 2484 
z
M 1172 3481 
Q 1172 3119 1398 2916 
Q 1625 2713 2034 2713 
Q 2441 2713 2670 2916 
Q 2900 3119 2900 3481 
Q 2900 3844 2670 4047 
Q 2441 4250 2034 4250 
Q 1625 4250 1398 4047 
Q 1172 3844 1172 3481 
z
" transform="scale(0.015625)"/>
       </defs>
       <use xlink:href="#DejaVuSans-33"/>
       <use xlink:href="#DejaVuSans-38" transform="translate(63.623047 0)"/>
      </g>
     </g>
    </g>
    <g id="ytick_6">
     <g id="line2d_25">
      <path d="M 40.603125 106.844792 
L 294.183125 106.844792 
" clip-path="url(#pee2ebc0272)" style="fill: none; stroke: #b0b0b0; stroke-opacity: 0.25; stroke-width: 0.8; stroke-linecap: square"/>
     </g>
     <g id="line2d_26">
      <g>
       <use xlink:href="#ma187b09a93" x="40.603125" y="106.844792" style="stroke: #000000; stroke-width: 0.8"/>
      </g>
     </g>
     <g id="text_14">
      <!-- 40 -->
      <g transform="translate(20.878125 110.64401) scale(0.1 -0.1)">
       <use xlink:href="#DejaVuSans-34"/>
       <use xlink:href="#DejaVuSans-30" transform="translate(63.623047 0)"/>
      </g>
     </g>
    </g>
    <g id="ytick_7">
     <g id="line2d_27">
      <path d="M 40.603125 22.318125 
L 294.183125 22.318125 
" clip-path="url(#pee2ebc0272)" style="fill: none; stroke: #b0b0b0; stroke-opacity: 0.25; stroke-width: 0.8; stroke-linecap: square"/>
     </g>
     <g id="line2d_28">
      <g>
       <use xlink:href="#ma187b09a93" x="40.603125" y="22.318125" style="stroke: #000000; stroke-width: 0.8"/>
      </g>
     </g>
     <g id="text_15">
      <!-- 42 -->
      <g transform="translate(20.878125 26.117344) scale(0.1 -0.1)">
       <use xlink:href="#DejaVuSans-34"/>
       <use xlink:href="#DejaVuSans-32" transform="translate(63.623047 0)"/>
      </g>
     </g>
    </g>
    <g id="text_16">
     <!-- Y -->
     <g transform="translate(14.798438 278.952031) rotate(-90) scale(0.1 -0.1)">
      <defs>
       <path id="DejaVuSans-59" d="M -13 4666 
L 666 4666 
L 1959 2747 
L 3244 4666 
L 3922 4666 
L 2272 2222 
L 2272 0 
L 1638 0 
L 1638 2222 
L -13 4666 
z
" transform="scale(0.015625)"/>
      </defs>
      <use xlink:href="#DejaVuSans-59"/>
     </g>
    </g>
   </g>
   <g id="patch_15">
    <path d="M 40.603125 529.478125 
L 40.603125 22.318125 
" style="fill: none; stroke: #000000; stroke-width: 0.8; stroke-linejoin: miter; stroke-linecap: square"/>
   </g>
   <g id="patch_16">
    <path d="M 294.183125 529.478125 
L 294.183125 22.318125 
" style="fill: none; stroke: #000000; stroke-width: 0.8; stroke-linejoin: miter; stroke-linecap: square"/>
   </g>
   <g id="patch_17">
    <path d="M 40.603125 529.478125 
L 294.183125 529.478125 
" style="fill: none; stroke: #000000; stroke-width: 0.8; stroke-linejoin: miter; stroke-linecap: square"/>
   </g>
   <g id="patch_18">
    <path d="M 40.603125 22.318125 
L 294.183125 22.318125 
" style="fill: none; stroke: #000000; stroke-width: 0.8; stroke-linejoin: miter; stroke-linecap: square"/>
   </g>
   <g id="text_17">
    <!-- 1 -->
    <g style="fill: #ffffff" transform="translate(159.174758 171.282948) scale(0.08 -0.08)">
     <defs>
      <path id="DejaVuSans-Bold-31" d="M 750 831 
L 1813 831 
L 1813 3847 
L 722 3622 
L 722 4441 
L 1806 4666 
L 2950 4666 
L 2950 831 
L 4013 831 
L 4013 0 
L 750 0 
L 750 831 
z
" transform="scale(0.015625)"/>
     </defs>
     <use xlink:href="#DejaVuSans-Bold-31"/>
    </g>
   </g>
   <g id="text_18">
    <!-- 2 -->
    <g style="fill: #ffffff" transform="translate(131.697364 157.542173) scale(0.08 -0.08)">
     <defs>
      <path id="DejaVuSans-Bold-32" d="M 1844 884 
L 3897 884 
L 3897 0 
L 506 0 
L 506 884 
L 2209 2388 
Q 2438 2594 2547 2791 
Q 2656 2988 2656 3200 
Q 2656 3528 2436 3728 
Q 2216 3928 1850 3928 
Q 1569 3928 1234 3808 
Q 900 3688 519 3450 
L 519 4475 
Q 925 4609 1322 4679 
Q 1719 4750 2100 4750 
Q 2938 4750 3402 4381 
Q 3866 4013 3866 3353 
Q 3866 2972 3669 2642 
Q 3472 2313 2841 1759 
L 1844 884 
z
" transform="scale(0.015625)"/>
     </defs>
     <use xlink:href="#DejaVuSans-Bold-32"/>
    </g>
   </g>
   <g id="text_19">
    <!-- 3 -->
    <g style="fill: #ffffff" transform="translate(139.762838 175.814409) scale(0.08 -0.08)">
     <defs>
      <path id="DejaVuSans-Bold-33" d="M 2981 2516 
Q 3453 2394 3698 2092 
Q 3944 1791 3944 1325 
Q 3944 631 3412 270 
Q 2881 -91 1863 -91 
Q 1503 -91 1142 -33 
Q 781 25 428 141 
L 428 1069 
Q 766 900 1098 814 
Q 1431 728 1753 728 
Q 2231 728 2486 893 
Q 2741 1059 2741 1369 
Q 2741 1688 2480 1852 
Q 2219 2016 1709 2016 
L 1228 2016 
L 1228 2791 
L 1734 2791 
Q 2188 2791 2409 2933 
Q 2631 3075 2631 3366 
Q 2631 3634 2415 3781 
Q 2200 3928 1806 3928 
Q 1516 3928 1219 3862 
Q 922 3797 628 3669 
L 628 4550 
Q 984 4650 1334 4700 
Q 1684 4750 2022 4750 
Q 2931 4750 3382 4451 
Q 3834 4153 3834 3553 
Q 3834 3144 3618 2883 
Q 3403 2622 2981 2516 
z
" transform="scale(0.015625)"/>
     </defs>
     <use xlink:href="#DejaVuSans-Bold-33"/>
    </g>
   </g>
   <g id="text_20">
    <!-- 4 -->
    <g style="fill: #ffffff" transform="translate(158.891949 203.14038) scale(0.08 -0.08)">
     <defs>
      <path id="DejaVuSans-Bold-34" d="M 2356 3675 
L 1038 1722 
L 2356 1722 
L 2356 3675 
z
M 2156 4666 
L 3494 4666 
L 3494 1722 
L 4159 1722 
L 4159 850 
L 3494 850 
L 3494 0 
L 2356 0 
L 2356 850 
L 288 850 
L 288 1881 
L 2156 4666 
z
" transform="scale(0.015625)"/>
     </defs>
     <use xlink:href="#DejaVuSans-Bold-34"/>
    </g>
   </g>
   <g id="text_21">
    <!-- 5 -->
    <g style="fill: #ffffff" transform="translate(149.888055 228.131697) scale(0.08 -0.08)">
     <defs>
      <path id="DejaVuSans-Bold-35" d="M 678 4666 
L 3669 4666 
L 3669 3781 
L 1638 3781 
L 1638 3059 
Q 1775 3097 1914 3117 
Q 2053 3138 2203 3138 
Q 3056 3138 3531 2711 
Q 4006 2284 4006 1522 
Q 4006 766 3489 337 
Q 2972 -91 2053 -91 
Q 1656 -91 1267 -14 
Q 878 63 494 219 
L 494 1166 
Q 875 947 1217 837 
Q 1559 728 1863 728 
Q 2300 728 2551 942 
Q 2803 1156 2803 1522 
Q 2803 1891 2551 2103 
Q 2300 2316 1863 2316 
Q 1603 2316 1309 2248 
Q 1016 2181 678 2041 
L 678 4666 
z
" transform="scale(0.015625)"/>
     </defs>
     <use xlink:href="#DejaVuSans-Bold-35"/>
    </g>
   </g>
   <g id="text_22">
    <!-- 1 -->
    <g transform="translate(188.308232 169.724094) scale(0.08 -0.08)">
     <use xlink:href="#DejaVuSans-Bold-31"/>
    </g>
   </g>
   <g id="text_23">
    <!-- 2 -->
    <g transform="translate(172.20653 178.302868) scale(0.08 -0.08)">
     <use xlink:href="#DejaVuSans-Bold-32"/>
    </g>
   </g>
   <g id="text_24">
    <!-- 3 -->
    <g transform="translate(186.505961 190.196847) scale(0.08 -0.08)">
     <use xlink:href="#DejaVuSans-Bold-33"/>
    </g>
   </g>
   <g id="text_25">
    <!-- 4 -->
    <g transform="translate(173.360294 209.967963) scale(0.08 -0.08)">
     <use xlink:href="#DejaVuSans-Bold-34"/>
    </g>
   </g>
   <g id="text_26">
    <!-- 5 -->
    <g transform="translate(171.843298 248.008413) scale(0.08 -0.08)">
     <use xlink:href="#DejaVuSans-Bold-35"/>
    </g>
   </g>
   <g id="text_27">
    <!-- End 3 TotalShot 10 / Shooter=team1 -->
    <g transform="translate(57.46 16.318125) scale(0.12 -0.12)">
     <defs>
      <path id="DejaVuSans-45" d="M 628 4666 
L 3578 4666 
L 3578 4134 
L 1259 4134 
L 1259 2753 
L 3481 2753 
L 3481 2222 
L 1259 2222 
L 1259 531 
L 3634 531 
L 3634 0 
L 628 0 
L 628 4666 
z
" transform="scale(0.015625)"/>
      <path id="DejaVuSans-6e" d="M 3513 2113 
L 3513 0 
L 2938 0 
L 2938 2094 
Q 2938 2591 2744 2837 
Q 2550 3084 2163 3084 
Q 1697 3084 1428 2787 
Q 1159 2491 1159 1978 
L 1159 0 
L 581 0 
L 581 3500 
L 1159 3500 
L 1159 2956 
Q 1366 3272 1645 3428 
Q 1925 3584 2291 3584 
Q 2894 3584 3203 3211 
Q 3513 2838 3513 2113 
z
" transform="scale(0.015625)"/>
      <path id="DejaVuSans-64" d="M 2906 2969 
L 2906 4863 
L 3481 4863 
L 3481 0 
L 2906 0 
L 2906 525 
Q 2725 213 2448 61 
Q 2172 -91 1784 -91 
Q 1150 -91 751 415 
Q 353 922 353 1747 
Q 353 2572 751 3078 
Q 1150 3584 1784 3584 
Q 2172 3584 2448 3432 
Q 2725 3281 2906 2969 
z
M 947 1747 
Q 947 1113 1208 752 
Q 1469 391 1925 391 
Q 2381 391 2643 752 
Q 2906 1113 2906 1747 
Q 2906 2381 2643 2742 
Q 2381 3103 1925 3103 
Q 1469 3103 1208 2742 
Q 947 2381 947 1747 
z
" transform="scale(0.015625)"/>
      <path id="DejaVuSans-20" transform="scale(0.015625)"/>
      <path id="DejaVuSans-54" d="M -19 4666 
L 3928 4666 
L 3928 4134 
L 2272 4134 
L 2272 0 
L 1638 0 
L 1638 4134 
L -19 4134 
L -19 4666 
z
" transform="scale(0.015625)"/>
      <path id="DejaVuSans-6f" d="M 1959 3097 
Q 1497 3097 1228 2736 
Q 959 2375 959 1747 
Q 959 1119 1226 758 
Q 1494 397 1959 397 
Q 2419 397 2687 759 
Q 2956 1122 2956 1747 
Q 2956 2369 2687 2733 
Q 2419 3097 1959 3097 
z
M 1959 3584 
Q 2709 3584 3137 3096 
Q 3566 2609 3566 1747 
Q 3566 888 3137 398 
Q 2709 -91 1959 -91 
Q 1206 -91 779 398 
Q 353 888 353 1747 
Q 353 2609 779 3096 
Q 1206 3584 1959 3584 
z
" transform="scale(0.015625)"/>
      <path id="DejaVuSans-74" d="M 1172 4494 
L 1172 3500 
L 2356 3500 
L 2356 3053 
L 1172 3053 
L 1172 1153 
Q 1172 725 1289 603 
Q 1406 481 1766 481 
L 2356 481 
L 2356 0 
L 1766 0 
Q 1100 0 847 248 
Q 594 497 594 1153 
L 594 3053 
L 172 3053 
L 172 3500 
L 594 3500 
L 594 4494 
L 1172 4494 
z
" transform="scale(0.015625)"/>
      <path id="DejaVuSans-61" d="M 2194 1759 
Q 1497 1759 1228 1600 
Q 959 1441 959 1056 
Q 959 750 1161 570 
Q 1363 391 1709 391 
Q 2188 391 2477 730 
Q 2766 1069 2766 1631 
L 2766 1759 
L 2194 1759 
z
M 3341 1997 
L 3341 0 
L 2766 0 
L 2766 531 
Q 2569 213 2275 61 
Q 1981 -91 1556 -91 
Q 1019 -91 701 211 
Q 384 513 384 1019 
Q 384 1609 779 1909 
Q 1175 2209 1959 2209 
L 2766 2209 
L 2766 2266 
Q 2766 2663 2505 2880 
Q 2244 3097 1772 3097 
Q 1472 3097 1187 3025 
Q 903 2953 641 2809 
L 641 3341 
Q 956 3463 1253 3523 
Q 1550 3584 1831 3584 
Q 2591 3584 2966 3190 
Q 3341 2797 3341 1997 
z
" transform="scale(0.015625)"/>
      <path id="DejaVuSans-6c" d="M 603 4863 
L 1178 4863 
L 1178 0 
L 603 0 
L 603 4863 
z
" transform="scale(0.015625)"/>
      <path id="DejaVuSans-53" d="M 3425 4513 
L 3425 3897 
Q 3066 4069 2747 4153 
Q 2428 4238 2131 4238 
Q 1616 4238 1336 4038 
Q 1056 3838 1056 3469 
Q 1056 3159 1242 3001 
Q 1428 2844 1947 2747 
L 2328 2669 
Q 3034 2534 3370 2195 
Q 3706 1856 3706 1288 
Q 3706 609 3251 259 
Q 2797 -91 1919 -91 
Q 1588 -91 1214 -16 
Q 841 59 441 206 
L 441 856 
Q 825 641 1194 531 
Q 1563 422 1919 422 
Q 2459 422 2753 634 
Q 3047 847 3047 1241 
Q 3047 1584 2836 1778 
Q 2625 1972 2144 2069 
L 1759 2144 
Q 1053 2284 737 2584 
Q 422 2884 422 3419 
Q 422 4038 858 4394 
Q 1294 4750 2059 4750 
Q 2388 4750 2728 4690 
Q 3069 4631 3425 4513 
z
" transform="scale(0.015625)"/>
      <path id="DejaVuSans-68" d="M 3513 2113 
L 3513 0 
L 2938 0 
L 2938 2094 
Q 2938 2591 2744 2837 
Q 2550 3084 2163 3084 
Q 1697 3084 1428 2787 
Q 1159 2491 1159 1978 
L 1159 0 
L 581 0 
L 581 4863 
L 1159 4863 
L 1159 2956 
Q 1366 3272 1645 3428 
Q 1925 3584 2291 3584 
Q 2894 3584 3203 3211 
Q 3513 2838 3513 2113 
z
" transform="scale(0.015625)"/>
      <path id="DejaVuSans-2f" d="M 1625 4666 
L 2156 4666 
L 531 -594 
L 0 -594 
L 1625 4666 
z
" transform="scale(0.015625)"/>
      <path id="DejaVuSans-65" d="M 3597 1894 
L 3597 1613 
L 953 1613 
Q 991 1019 1311 708 
Q 1631 397 2203 397 
Q 2534 397 2845 478 
Q 3156 559 3463 722 
L 3463 178 
Q 3153 47 2828 -22 
Q 2503 -91 2169 -91 
Q 1331 -91 842 396 
Q 353 884 353 1716 
Q 353 2575 817 3079 
Q 1281 3584 2069 3584 
Q 2775 3584 3186 3129 
Q 3597 2675 3597 1894 
z
M 3022 2063 
Q 3016 2534 2758 2815 
Q 2500 3097 2075 3097 
Q 1594 3097 1305 2825 
Q 1016 2553 972 2059 
L 3022 2063 
z
" transform="scale(0.015625)"/>
      <path id="DejaVuSans-72" d="M 2631 2963 
Q 2534 3019 2420 3045 
Q 2306 3072 2169 3072 
Q 1681 3072 1420 2755 
Q 1159 2438 1159 1844 
L 1159 0 
L 581 0 
L 581 3500 
L 1159 3500 
L 1159 2956 
Q 1341 3275 1631 3429 
Q 1922 3584 2338 3584 
Q 2397 3584 2469 3576 
Q 2541 3569 2628 3553 
L 2631 2963 
z
" transform="scale(0.015625)"/>
      <path id="DejaVuSans-3d" d="M 678 2906 
L 4684 2906 
L 4684 2381 
L 678 2381 
L 678 2906 
z
M 678 1631 
L 4684 1631 
L 4684 1100 
L 678 1100 
L 678 1631 
z
" transform="scale(0.015625)"/>
      <path id="DejaVuSans-6d" d="M 3328 2828 
Q 3544 3216 3844 3400 
Q 4144 3584 4550 3584 
Q 5097 3584 5394 3201 
Q 5691 2819 5691 2113 
L 5691 0 
L 5113 0 
L 5113 2094 
Q 5113 2597 4934 2840 
Q 4756 3084 4391 3084 
Q 3944 3084 3684 2787 
Q 3425 2491 3425 1978 
L 3425 0 
L 2847 0 
L 2847 2094 
Q 2847 2600 2669 2842 
Q 2491 3084 2119 3084 
Q 1678 3084 1418 2786 
Q 1159 2488 1159 1978 
L 1159 0 
L 581 0 
L 581 3500 
L 1159 3500 
L 1159 2956 
Q 1356 3278 1631 3431 
Q 1906 3584 2284 3584 
Q 2666 3584 2933 3390 
Q 3200 3197 3328 2828 
z
" transform="scale(0.015625)"/>
     </defs>
     <use xlink:href="#DejaVuSans-45"/>
     <use xlink:href="#DejaVuSans-6e" transform="translate(63.183594 0)"/>
     <use xlink:href="#DejaVuSans-64" transform="translate(126.5625 0)"/>
     <use xlink:href="#DejaVuSans-20" transform="translate(190.039062 0)"/>
     <use xlink:href="#DejaVuSans-33" transform="translate(221.826172 0)"/>
     <use xlink:href="#DejaVuSans-20" transform="translate(285.449219 0)"/>
     <use xlink:href="#DejaVuSans-54" transform="translate(317.236328 0)"/>
     <use xlink:href="#DejaVuSans-6f" transform="translate(361.320312 0)"/>
     <use xlink:href="#DejaVuSans-74" transform="translate(422.501953 0)"/>
     <use xlink:href="#DejaVuSans-61" transform="translate(461.710938 0)"/>
     <use xlink:href="#DejaVuSans-6c" transform="translate(522.990234 0)"/>
     <use xlink:href="#DejaVuSans-53" transform="translate(550.773438 0)"/>
     <use xlink:href="#DejaVuSans-68" transform="translate(614.25 0)"/>
     <use xlink:href="#DejaVuSans-6f" transform="translate(677.628906 0)"/>
     <use xlink:href="#DejaVuSans-74" transform="translate(738.810547 0)"/>
     <use xlink:href="#DejaVuSans-20" transform="translate(778.019531 0)"/>
     <use xlink:href="#DejaVuSans-31" transform="translate(809.806641 0)"/>
     <use xlink:href="#DejaVuSans-30" transform="translate(873.429688 0)"/>
     <use xlink:href="#DejaVuSans-20" transform="translate(937.052734 0)"/>
     <use xlink:href="#DejaVuSans-2f" transform="translate(968.839844 0)"/>
     <use xlink:href="#DejaVuSans-20" transform="translate(1002.53125 0)"/>
     <use xlink:href="#DejaVuSans-53" transform="translate(1034.318359 0)"/>
     <use xlink:href="#DejaVuSans-68" transform="translate(1097.794922 0)"/>
     <use xlink:href="#DejaVuSans-6f" transform="translate(1161.173828 0)"/>
     <use xlink:href="#DejaVuSans-6f" transform="translate(1222.355469 0)"/>
     <use xlink:href="#DejaVuSans-74" transform="translate(1283.537109 0)"/>
     <use xlink:href="#DejaVuSans-65" transform="translate(1322.746094 0)"/>
     <use xlink:href="#DejaVuSans-72" transform="translate(1384.269531 0)"/>
     <use xlink:href="#DejaVuSans-3d" transform="translate(1425.382812 0)"/>
     <use xlink:href="#DejaVuSans-74" transform="translate(1509.171875 0)"/>
     <use xlink:href="#DejaVuSans-65" transform="translate(1548.380859 0)"/>
     <use xlink:href="#DejaVuSans-61" transform="translate(1609.904297 0)"/>
     <use xlink:href="#DejaVuSans-6d" transform="translate(1671.183594 0)"/>
     <use xlink:href="#DejaVuSans-31" transform="translate(1768.595703 0)"/>
    </g>
   </g>
   <g id="legend_1">
    <g id="patch_19">
     <path d="M 301.254725 84.030625 
L 365.559413 84.030625 
Q 367.559413 84.030625 367.559413 82.030625 
L 367.559413 24.318125 
Q 367.559413 22.318125 365.559413 22.318125 
L 301.254725 22.318125 
Q 299.254725 22.318125 299.254725 24.318125 
L 299.254725 82.030625 
Q 299.254725 84.030625 301.254725 84.030625 
z
" style="fill: #ffffff; opacity: 0.8; stroke: #cccccc; stroke-linejoin: miter"/>
    </g>
    <g id="patch_20">
     <path d="M 303.254725 33.916562 
L 323.254725 33.916562 
L 323.254725 26.916562 
L 303.254725 26.916562 
z
" style="fill: #ff0000; stroke: #000000; stroke-linejoin: miter"/>
    </g>
    <g id="text_28">
     <!-- team0 -->
     <g transform="translate(331.254725 33.916562) scale(0.1 -0.1)">
      <use xlink:href="#DejaVuSans-74"/>
      <use xlink:href="#DejaVuSans-65" transform="translate(39.208984 0)"/>
      <use xlink:href="#DejaVuSans-61" transform="translate(100.732422 0)"/>
      <use xlink:href="#DejaVuSans-6d" transform="translate(162.011719 0)"/>
      <use xlink:href="#DejaVuSans-30" transform="translate(259.423828 0)"/>
     </g>
    </g>
    <g id="patch_21">
     <path d="M 303.254725 48.594687 
L 323.254725 48.594687 
L 323.254725 41.594687 
L 303.254725 41.594687 
z
" style="fill: #ffd700; stroke: #000000; stroke-linejoin: miter"/>
    </g>
    <g id="text_29">
     <!-- team1 -->
     <g transform="translate(331.254725 48.594687) scale(0.1 -0.1)">
      <use xlink:href="#DejaVuSans-74"/>
      <use xlink:href="#DejaVuSans-65" transform="translate(39.208984 0)"/>
      <use xlink:href="#DejaVuSans-61" transform="translate(100.732422 0)"/>
      <use xlink:href="#DejaVuSans-6d" transform="translate(162.011719 0)"/>
      <use xlink:href="#DejaVuSans-31" transform="translate(259.423828 0)"/>
     </g>
    </g>
    <g id="line2d_29">
     <defs>
      <path id="m1c7903fc0c" d="M 0 5 
C 1.326016 5 2.597899 4.473168 3.535534 3.535534 
C 4.473168 2.597899 5 1.326016 5 0 
C 5 -1.326016 4.473168 -2.597899 3.535534 -3.535534 
C 2.597899 -4.473168 1.326016 -5 0 -5 
C -1.326016 -5 -2.597899 -4.473168 -3.535534 -3.535534 
C -4.473168 -2.597899 -5 -1.326016 -5 0 
C -5 1.326016 -4.473168 2.597899 -3.535534 3.535534 
C -2.597899 4.473168 -1.326016 5 0 5 
z
" style="stroke: #808080"/>
     </defs>
     <g>
      <use xlink:href="#m1c7903fc0c" x="313.254725" y="59.772812" style="fill-opacity: 0; stroke: #808080"/>
     </g>
    </g>
    <g id="text_30">
     <!-- house -->
     <g transform="translate(331.254725 63.272812) scale(0.1 -0.1)">
      <defs>
       <path id="DejaVuSans-75" d="M 544 1381 
L 544 3500 
L 1119 3500 
L 1119 1403 
Q 1119 906 1312 657 
Q 1506 409 1894 409 
Q 2359 409 2629 706 
Q 2900 1003 2900 1516 
L 2900 3500 
L 3475 3500 
L 3475 0 
L 2900 0 
L 2900 538 
Q 2691 219 2414 64 
Q 2138 -91 1772 -91 
Q 1169 -91 856 284 
Q 544 659 544 1381 
z
M 1991 3584 
L 1991 3584 
z
" transform="scale(0.015625)"/>
       <path id="DejaVuSans-73" d="M 2834 3397 
L 2834 2853 
Q 2591 2978 2328 3040 
Q 2066 3103 1784 3103 
Q 1356 3103 1142 2972 
Q 928 2841 928 2578 
Q 928 2378 1081 2264 
Q 1234 2150 1697 2047 
L 1894 2003 
Q 2506 1872 2764 1633 
Q 3022 1394 3022 966 
Q 3022 478 2636 193 
Q 2250 -91 1575 -91 
Q 1294 -91 989 -36 
Q 684 19 347 128 
L 347 722 
Q 666 556 975 473 
Q 1284 391 1588 391 
Q 1994 391 2212 530 
Q 2431 669 2431 922 
Q 2431 1156 2273 1281 
Q 2116 1406 1581 1522 
L 1381 1569 
Q 847 1681 609 1914 
Q 372 2147 372 2553 
Q 372 3047 722 3315 
Q 1072 3584 1716 3584 
Q 2034 3584 2315 3537 
Q 2597 3491 2834 3397 
z
" transform="scale(0.015625)"/>
      </defs>
      <use xlink:href="#DejaVuSans-68"/>
      <use xlink:href="#DejaVuSans-6f" transform="translate(63.378906 0)"/>
      <use xlink:href="#DejaVuSans-75" transform="translate(124.560547 0)"/>
      <use xlink:href="#DejaVuSans-73" transform="translate(187.939453 0)"/>
      <use xlink:href="#DejaVuSans-65" transform="translate(240.039062 0)"/>
     </g>
    </g>
    <g id="line2d_30">
     <defs>
      <path id="m3f2eb0968b" d="M 0 2.5 
C 0.663008 2.5 1.29895 2.236584 1.767767 1.767767 
C 2.236584 1.29895 2.5 0.663008 2.5 0 
C 2.5 -0.663008 2.236584 -1.29895 1.767767 -1.767767 
C 1.29895 -2.236584 0.663008 -2.5 0 -2.5 
C -0.663008 -2.5 -1.29895 -2.236584 -1.767767 -1.767767 
C -2.236584 -1.29895 -2.5 -0.663008 -2.5 0 
C -2.5 0.663008 -2.236584 1.29895 -1.767767 1.767767 
C -1.29895 2.236584 -0.663008 2.5 0 2.5 
z
" style="stroke: #000000"/>
     </defs>
     <g>
      <use xlink:href="#m3f2eb0968b" x="313.254725" y="74.450937" style="stroke: #000000"/>
     </g>
    </g>
    <g id="text_31">
     <!-- TEE -->
     <g transform="translate(331.254725 77.950937) scale(0.1 -0.1)">
      <use xlink:href="#DejaVuSans-54"/>
      <use xlink:href="#DejaVuSans-45" transform="translate(61.083984 0)"/>
      <use xlink:href="#DejaVuSans-45" transform="translate(124.267578 0)"/>
     </g>
    </g>
   </g>
  </g>
 </g>
 <defs>
  <clipPath id="pee2ebc0272">
   <rect x="40.603125" y="22.318125" width="253.58" height="507.16"/>
  </clipPath>
 </defs>
</svg>
